<?xml version="1.0" encoding="iso-8859-1"?>
<!-- Generator: Adobe Illustrator 17.1.0, SVG Export Plug-In . SVG Version: 6.00 Build 0)  -->
<!DOCTYPE svg PUBLIC "-//W3C//DTD SVG 1.1//EN" "http://www.w3.org/Graphics/SVG/1.1/DTD/svg11.dtd">
<svg version="1.1" id="Capa_1" xmlns="http://www.w3.org/2000/svg" xmlns:xlink="http://www.w3.org/1999/xlink" x="0px" y="0px"
	 fill="white" viewBox="0 0 409.238 409.238" style="enable-background:new 0 0 409.238 409.238;" xml:space="preserve">
<g>
	<path d="M394.238,82.575h-60.976c6.175-9.165,8.293-21.304,5.293-33.851c-4.182-17.49-19.789-37.914-50.013-37.914
		c-22.273,0-49.194,18.682-63.258,29.817c-4.144,3.281-12.801,10.406-20.665,18.55c-7.864-8.144-16.521-15.269-20.665-18.55
		c-14.064-11.136-40.984-29.817-63.258-29.817c-30.224,0-45.831,20.424-50.013,37.914c-3,12.547-0.882,24.686,5.293,33.851H15
		c-8.271,0-15,6.729-15,15v111.927c0,8.271,6.729,15,15,15h379.238c8.271,0,15-6.729,15-15V97.575
		C409.238,89.304,402.509,82.575,394.238,82.575z M352.408,162.95c-7.692,11.696-40.802,39.509-47.977,39.509
		c-7.026,0-40.437-27.913-48.078-39.509c-3.825-5.805-6.54-12.211-6.09-20.632c0.799-14.905,12.985-27.213,27.911-27.213
		c15.344,0,24.28,16.371,26.208,16.371c2.203,0,11.521-16.371,26.208-16.371c14.924,0,27.111,12.308,27.909,27.213
		C358.948,150.739,356.243,157.119,352.408,162.95z"/>
	<path d="M374.238,256.502H35c-8.271,0-15,6.729-15,15v111.926c0,8.271,6.729,15,15,15h339.238c8.271,0,15-6.729,15-15V271.502
		C389.238,263.23,382.509,256.502,374.238,256.502z M179.766,331.633c-7.692,11.696-40.802,39.509-47.977,39.509
		c-7.026,0-40.437-27.913-48.078-39.509c-3.825-5.805-6.54-12.211-6.09-20.631c0.799-14.905,12.985-27.213,27.911-27.213
		c15.344,0,24.28,16.371,26.208,16.371c2.203,0,11.521-16.371,26.208-16.371c14.924,0,27.111,12.308,27.909,27.213
		C186.306,319.421,183.601,325.802,179.766,331.633z"/>
</g>
<g>
</g>
<g>
</g>
<g>
</g>
<g>
</g>
<g>
</g>
<g>
</g>
<g>
</g>
<g>
</g>
<g>
</g>
<g>
</g>
<g>
</g>
<g>
</g>
<g>
</g>
<g>
</g>
<g>
</g>
</svg>
