<svg xmlns="http://www.w3.org/2000/svg" width="105.169" height="107.372" viewBox="0 0 105.169 107.372">
    <defs>
        <style>
            .cls-1{fill:#cc7974}
        </style>
    </defs>
    <g id="save_the_date_fotografi_2" transform="translate(-1246.646 -958.6)">
        <g id="Group_11703" transform="translate(1246.646 958.6)">
            <g id="Group_11560" transform="translate(9.891 10.195)">
                <g id="Group_11559">
                    <path id="Path_93889" d="M1299.342 1057.238a45.729 45.729 0 1 1 45.728-45.728 45.781 45.781 0 0 1-45.728 45.728zm0-90.2a44.466 44.466 0 1 0 44.466 44.467 44.518 44.518 0 0 0-44.466-44.462z" class="cls-1" transform="translate(-1253.613 -965.781)"/>
                </g>
            </g>
            <g id="Group_11631" transform="translate(0 73.9)">
                <g id="Group_11563" transform="translate(2.106 2.029)">
                    <g id="Group_11562">
                        <g id="Group_11561">
                            <path id="Path_93890" d="M1248.163 1012.247a91.639 91.639 0 0 0 18.42 15.925 62.181 62.181 0 0 0 22.076 9.1 49.169 49.169 0 0 0 13.589.637c.458-.043-.082-.342-.314-.319a50.513 50.513 0 0 1-23.456-3.635 74.062 74.062 0 0 1-20.219-12.52 98.836 98.836 0 0 1-9.466-9.25c-.134-.149-.822-.152-.631.061z" class="cls-1" transform="translate(-1248.129 -1012.079)"/>
                        </g>
                    </g>
                </g>
                <g id="Group_11566" transform="translate(6.857 3.974)">
                    <g id="Group_11565">
                        <g id="Group_11564">
                            <path id="Path_93891" d="M1251.483 1013.582a25.916 25.916 0 0 0 .284 3.227c.013.153.195.214.325.234.074.011.39.02.379-.125a25.646 25.646 0 0 1-.284-3.227c.007-.151-.209-.217-.325-.234-.089-.014-.372-.023-.379.125z" class="cls-1" transform="translate(-1251.476 -1013.45)"/>
                        </g>
                    </g>
                </g>
                <g id="Group_11569" transform="translate(4.983 10.756)">
                    <g id="Group_11568">
                        <g id="Group_11567">
                            <path id="Path_93892" d="M1256.2 1018.252a20.187 20.187 0 0 1-5.761.514c-.114 0-.317.044-.282.2s.291.2.413.2a21.28 21.28 0 0 0 6.087-.565c.15-.044.145-.185.042-.274a.564.564 0 0 0-.5-.075z" class="cls-1" transform="translate(-1250.156 -1018.226)"/>
                        </g>
                    </g>
                </g>
                <g id="Group_11572" transform="translate(16.404 5.905)">
                    <g id="Group_11571">
                        <g id="Group_11570">
                            <path id="Path_93893" d="M1258.627 1014.934a19.149 19.149 0 0 0-.364 4.966 14.821 14.821 0 0 0 .189 4.312c.061.213.761.26.691.017a15.285 15.285 0 0 1-.175-4.358 18.238 18.238 0 0 1 .362-4.829c.058-.207-.639-.344-.7-.108z" class="cls-1" transform="translate(-1258.201 -1014.81)"/>
                        </g>
                    </g>
                </g>
                <g id="Group_11575" transform="translate(26.227 11.949)">
                    <g id="Group_11574">
                        <g id="Group_11573">
                            <path id="Path_93894" d="M1266.031 1019.191a17.052 17.052 0 0 0-.906 5.266 17.733 17.733 0 0 0 .849 4.4c.064.213.764.257.692.019a16.85 16.85 0 0 1-.841-4.428 17.585 17.585 0 0 1 .91-5.144c.058-.206-.636-.344-.7-.108z" class="cls-1" transform="translate(-1265.119 -1019.067)"/>
                        </g>
                    </g>
                </g>
                <g id="Group_11578" transform="translate(13.766 18.266)">
                    <g id="Group_11577">
                        <g id="Group_11576">
                            <path id="Path_93895" d="M1263.875 1023.573a13.271 13.271 0 0 1-1.61.9 7.654 7.654 0 0 1-1.865.5 17.019 17.019 0 0 1-3.771.187c-.114-.007-.316.046-.282.195s.292.192.413.2a16.848 16.848 0 0 0 2.141-.031 17.988 17.988 0 0 0 1.912-.186 8 8 0 0 0 1.908-.522 13.973 13.973 0 0 0 1.732-.964c.142-.088.011-.226-.085-.278a.539.539 0 0 0-.493-.006z" class="cls-1" transform="translate(-1256.342 -1023.516)"/>
                        </g>
                    </g>
                </g>
                <g id="Group_11581" transform="translate(27.581 23.897)">
                    <g id="Group_11580">
                        <g id="Group_11579">
                            <path id="Path_93896" d="M1270.6 1027.593a3.981 3.981 0 0 1-.97 1.205c-.321.305-.611.642-.951.926a6.823 6.823 0 0 1-2.488 1.35c-.152.043-.143.19-.042.278a.56.56 0 0 0 .5.077 7.17 7.17 0 0 0 2.608-1.413c.354-.294.652-.642.984-.957a4.181 4.181 0 0 0 1.024-1.256c.129-.282-.558-.44-.663-.21z" class="cls-1" transform="translate(-1266.073 -1027.482)"/>
                        </g>
                    </g>
                </g>
                <g id="Group_11584" transform="translate(28.968 26.789)">
                    <g id="Group_11583">
                        <g id="Group_11582">
                            <path id="Path_93897" d="M1280.213 1029.578a15.889 15.889 0 0 1-6.011 3.356 50.4 50.4 0 0 1-7.044 1.661c-.162.031-.115.142-.034.223a.636.636 0 0 0 .5.077 48.189 48.189 0 0 0 7.315-1.758 16.134 16.134 0 0 0 5.942-3.371c.149-.148-.5-.349-.666-.189z" class="cls-1" transform="translate(-1267.05 -1029.519)"/>
                        </g>
                    </g>
                </g>
                <g id="Group_11587" transform="translate(40.735 21.44)">
                    <g id="Group_11586">
                        <g id="Group_11585">
                            <path id="Path_93898" d="M1275.349 1025.9a30.652 30.652 0 0 0 1.873 2.99 23.8 23.8 0 0 0 2.117 2.845.573.573 0 0 0 .473.135c.1-.016.274-.092.162-.214a22.782 22.782 0 0 1-2.057-2.756 31.109 31.109 0 0 1-1.874-2.986c-.111-.211-.8-.22-.693-.014z" class="cls-1" transform="translate(-1275.338 -1025.752)"/>
                        </g>
                    </g>
                </g>
                <g id="Group_11589" transform="translate(6.439 2.885)">
                    <g id="Group_11588">
                        <path id="Path_93899" d="M1251.71 1014.361a.875.875 0 1 0-.456-1.151.875.875 0 0 0 .456 1.151z" class="cls-1" transform="translate(-1251.182 -1012.682)"/>
                    </g>
                </g>
                <g id="Group_11591" transform="translate(3.806 10.164)">
                    <g id="Group_11590">
                        <path id="Path_93900" d="M1250.038 1020.072a1.18 1.18 0 1 0-.613-1.552 1.18 1.18 0 0 0 .613 1.552z" class="cls-1" transform="translate(-1249.327 -1017.81)"/>
                    </g>
                </g>
                <g id="Group_11593" transform="translate(15.905 4.246)">
                    <g id="Group_11592">
                        <path id="Path_93901" d="M1258.56 1015.9a1.18 1.18 0 1 0-.613-1.552 1.181 1.181 0 0 0 .613 1.552z" class="cls-1" transform="translate(-1257.849 -1013.642)"/>
                    </g>
                </g>
                <g id="Group_11595" transform="translate(13.707 6.578)">
                    <g id="Group_11594">
                        <path id="Path_93902" d="M1256.741 1016.686a.731.731 0 1 0-.38-.961.731.731 0 0 0 .38.961z" class="cls-1" transform="translate(-1256.301 -1015.284)"/>
                    </g>
                </g>
                <g id="Group_11597" transform="translate(22.531 10.82)">
                    <g id="Group_11596">
                        <path id="Path_93903" d="M1262.957 1019.673a.731.731 0 1 0-.381-.961.729.729 0 0 0 .381.961z" class="cls-1" transform="translate(-1262.516 -1018.271)"/>
                    </g>
                </g>
                <g id="Group_11599" transform="translate(32.1 28.049)">
                    <g id="Group_11598">
                        <path id="Path_93904" d="M1269.7 1031.807a.73.73 0 1 0-.381-.96.731.731 0 0 0 .381.96z" class="cls-1" transform="translate(-1269.255 -1030.406)"/>
                    </g>
                </g>
                <g id="Group_11601" transform="translate(15.439 17.609)">
                    <g id="Group_11600">
                        <path id="Path_93905" d="M1257.961 1024.456a.731.731 0 1 0-.381-.961.731.731 0 0 0 .381.961z" class="cls-1" transform="translate(-1257.521 -1023.054)"/>
                    </g>
                </g>
                <g id="Group_11603" transform="translate(1.654 10.374)">
                    <g id="Group_11602">
                        <path id="Path_93906" d="M1248.252 1019.36a.731.731 0 1 0-.38-.961.731.731 0 0 0 .38.961z" class="cls-1" transform="translate(-1247.812 -1017.958)"/>
                    </g>
                </g>
                <g id="Group_11605" transform="translate(3.009)">
                    <g id="Group_11604">
                        <path id="Path_93907" d="M1249.206 1012.053a.731.731 0 1 0-.381-.961.733.733 0 0 0 .381.961z" class="cls-1" transform="translate(-1248.766 -1010.651)"/>
                    </g>
                </g>
                <g id="Group_11607" transform="translate(40.263 18.869)">
                    <g id="Group_11606">
                        <path id="Path_93908" d="M1275.447 1025.343a.731.731 0 1 0-.381-.961.731.731 0 0 0 .381.961z" class="cls-1" transform="translate(-1275.006 -1023.94)"/>
                    </g>
                </g>
                <g id="Group_11609" transform="translate(29.254 28.424)">
                    <g id="Group_11608">
                        <path id="Path_93909" d="M1267.593 1031.76a.568.568 0 1 0-.3-.747.568.568 0 0 0 .3.747z" class="cls-1" transform="translate(-1267.251 -1030.671)"/>
                    </g>
                </g>
                <g id="Group_11611" transform="translate(27.851 13.695)">
                    <g id="Group_11610">
                        <path id="Path_93910" d="M1266.821 1022.072a.926.926 0 1 0-.481-1.217.926.926 0 0 0 .481 1.217z" class="cls-1" transform="translate(-1266.263 -1020.296)"/>
                    </g>
                </g>
                <g id="Group_11613" transform="translate(12.937 18.933)">
                    <g id="Group_11612">
                        <path id="Path_93911" d="M1256.47 1026.249a1.18 1.18 0 1 0-.615-1.552 1.18 1.18 0 0 0 .615 1.552z" class="cls-1" transform="translate(-1255.759 -1023.986)"/>
                    </g>
                </g>
                <g id="Group_11615" transform="translate(26.31 26.298)">
                    <g id="Group_11614">
                        <path id="Path_93912" d="M1265.888 1031.436a1.18 1.18 0 1 0-.614-1.552 1.181 1.181 0 0 0 .614 1.552z" class="cls-1" transform="translate(-1265.177 -1029.173)"/>
                    </g>
                </g>
                <g id="Group_11617" transform="translate(39.067 21.527)">
                    <g id="Group_11616">
                        <path id="Path_93913" d="M1274.623 1027.277a.763.763 0 1 0-.4-1 .764.764 0 0 0 .4 1z" class="cls-1" transform="translate(-1274.163 -1025.813)"/>
                    </g>
                </g>
                <g id="Group_11619" transform="translate(32.067 31.945)">
                    <g id="Group_11618">
                        <path id="Path_93914" d="M1269.693 1034.615a.763.763 0 1 0-.4-1 .763.763 0 0 0 .4 1z" class="cls-1" transform="translate(-1269.233 -1033.151)"/>
                    </g>
                </g>
                <g id="Group_11621" transform="translate(26.726 11.363)">
                    <g id="Group_11620">
                        <path id="Path_93915" d="M1265.931 1020.118a.763.763 0 1 0-.4-1 .762.762 0 0 0 .4 1z" class="cls-1" transform="translate(-1265.471 -1018.654)"/>
                    </g>
                </g>
                <g id="Group_11624" transform="translate(23.083 11.474)">
                    <g id="Group_11623">
                        <g id="Group_11622">
                            <path id="Path_93916" d="M1262.909 1018.8a20.17 20.17 0 0 0 3.4 4.479c.07.077.415.075.317-.035a20 20 0 0 1-3.366-4.435c-.05-.1-.395-.111-.346-.008z" class="cls-1" transform="translate(-1262.905 -1018.732)"/>
                        </g>
                    </g>
                </g>
                <g id="Group_11627" transform="translate(32.668 28.695)">
                    <g id="Group_11626">
                        <g id="Group_11625">
                            <path id="Path_93917" d="M1269.76 1031.017a20.54 20.54 0 0 0 5.634.8c.24.014.091-.161-.07-.17a19.781 19.781 0 0 1-5.446-.768c-.155-.054-.344.061-.118.142z" class="cls-1" transform="translate(-1269.656 -1030.861)"/>
                        </g>
                    </g>
                </g>
                <g id="Group_11630" transform="translate(0 2.789)">
                    <g id="Group_11629">
                        <g id="Group_11628">
                            <path id="Path_93918" d="M1246.687 1012.724a20.266 20.266 0 0 0 5.1 2.387c.112.043.415-.031.2-.112a20.021 20.021 0 0 1-5.036-2.35c-.084-.062-.422-.04-.266.075z" class="cls-1" transform="translate(-1246.646 -1012.615)"/>
                        </g>
                    </g>
                </g>
            </g>
            <g id="Group_11702" transform="translate(74.835)">
                <g id="Group_11634" transform="translate(1.75 1.877)">
                    <g id="Group_11633">
                        <g id="Group_11632">
                            <path id="Path_93919" d="M1300.73 959.949a80.892 80.892 0 0 1 14.561 15.795 54.855 54.855 0 0 1 8.645 19.209 43.39 43.39 0 0 1 .944 11.966c-.026.4-.3-.064-.291-.268a44.551 44.551 0 0 0-3.865-20.581 65.311 65.311 0 0 0-11.608-17.476 87.117 87.117 0 0 0-8.423-8.086c-.135-.114-.156-.721.037-.559z" class="cls-1" transform="translate(-1300.588 -959.922)"/>
                        </g>
                    </g>
                </g>
                <g id="Group_11637" transform="translate(3.601 5.999)">
                    <g id="Group_11636">
                        <g id="Group_11635">
                            <path id="Path_93920" d="M1302 962.843a22.862 22.862 0 0 1 2.852.16c.135.006.194.165.216.28.013.065.028.344-.1.338a22.837 22.837 0 0 0-2.854-.16c-.133.011-.2-.176-.216-.278-.014-.079-.03-.328.1-.339z" class="cls-1" transform="translate(-1301.891 -962.826)"/>
                        </g>
                    </g>
                </g>
                <g id="Group_11640" transform="translate(9.695 4.153)">
                    <g id="Group_11639">
                        <g id="Group_11638">
                            <path id="Path_93921" d="M1306.2 966.876a17.813 17.813 0 0 0 .291-5.094c0-.1.03-.281.168-.254s.185.25.189.358a18.74 18.74 0 0 1-.327 5.382c-.034.134-.159.134-.24.045a.5.5 0 0 1-.081-.437z" class="cls-1" transform="translate(-1306.184 -961.525)"/>
                        </g>
                    </g>
                </g>
                <g id="Group_11643" transform="translate(5.583 14.168)">
                    <g id="Group_11642">
                        <g id="Group_11641">
                            <path id="Path_93922" d="M1303.39 969.164a16.911 16.911 0 0 1 4.369-.461 13.06 13.06 0 0 1 3.808.045c.189.048.25.665.034.609a13.5 13.5 0 0 0-3.849-.031 16.031 16.031 0 0 0-4.247.456c-.182.055-.321-.554-.115-.618z" class="cls-1" transform="translate(-1303.288 -968.579)"/>
                        </g>
                    </g>
                </g>
                <g id="Group_11646" transform="translate(11.203 22.723)">
                    <g id="Group_11645">
                        <g id="Group_11644">
                            <path id="Path_93923" d="M1307.348 975.552a15.053 15.053 0 0 1 4.619-.947 15.693 15.693 0 0 1 3.9.625c.189.051.247.667.034.611a14.817 14.817 0 0 0-3.927-.618 15.532 15.532 0 0 0-4.511.947c-.179.058-.321-.551-.115-.618z" class="cls-1" transform="translate(-1307.246 -974.605)"/>
                        </g>
                    </g>
                </g>
                <g id="Group_11649" transform="translate(16.607 11.654)">
                    <g id="Group_11648">
                        <g id="Group_11647">
                            <path id="Path_93924" d="M1311.1 973.5a11.827 11.827 0 0 0 .751-1.445 6.794 6.794 0 0 0 .392-1.66 15.03 15.03 0 0 0 .058-3.331c-.01-.1.031-.28.163-.254s.177.253.187.359a14.946 14.946 0 0 1 .032 1.888 15.973 15.973 0 0 1-.111 1.691 7.045 7.045 0 0 1-.406 1.7 12.589 12.589 0 0 1-.8 1.555c-.074.128-.2.016-.248-.068a.467.467 0 0 1-.019-.433z" class="cls-1" transform="translate(-1311.052 -966.808)"/>
                        </g>
                    </g>
                </g>
                <g id="Group_11652" transform="translate(21.878 23.623)">
                    <g id="Group_11651">
                        <g id="Group_11650">
                            <path id="Path_93925" d="M1314.856 979.331a3.529 3.529 0 0 0 1.035-.889c.26-.292.548-.557.79-.866a6.006 6.006 0 0 0 1.12-2.23c.034-.135.163-.132.244-.046a.492.492 0 0 1 .083.437 6.351 6.351 0 0 1-1.173 2.34c-.25.319-.547.592-.815.894a3.716 3.716 0 0 1-1.08.938c-.244.121-.4-.48-.2-.579z" class="cls-1" transform="translate(-1314.765 -975.239)"/>
                        </g>
                    </g>
                </g>
                <g id="Group_11655" transform="translate(24.709 24.724)">
                    <g id="Group_11654">
                        <g id="Group_11653">
                            <path id="Path_93926" d="M1316.806 987.765a14.033 14.033 0 0 0 2.79-5.4 44.429 44.429 0 0 0 1.267-6.257c.023-.145.122-.107.2-.037a.56.56 0 0 1 .081.437 42.382 42.382 0 0 1-1.343 6.5 14.235 14.235 0 0 1-2.805 5.334c-.125.135-.322-.434-.185-.582z" class="cls-1" transform="translate(-1316.759 -976.014)"/>
                        </g>
                    </g>
                </g>
                <g id="Group_11658" transform="translate(19.955 35.393)">
                    <g id="Group_11657">
                        <g id="Group_11656">
                            <path id="Path_93927" d="M1313.535 983.538a26.783 26.783 0 0 1 2.69 1.569 20.678 20.678 0 0 1 2.567 1.786.5.5 0 0 1 .132.412c-.01.089-.072.246-.183.149a20.082 20.082 0 0 0-2.488-1.736 27.452 27.452 0 0 0-2.686-1.569c-.189-.091-.217-.7-.033-.611z" class="cls-1" transform="translate(-1313.41 -983.529)"/>
                        </g>
                    </g>
                </g>
                <g id="Group_11660" transform="translate(2.644 5.652)">
                    <g id="Group_11659">
                        <path id="Path_93928" d="M1302.689 963.024a.772.772 0 1 1-1.028-.369.773.773 0 0 1 1.028.369z" class="cls-1" transform="translate(-1301.218 -962.581)"/>
                    </g>
                </g>
                <g id="Group_11662" transform="translate(8.997 3.117)">
                    <g id="Group_11661">
                        <path id="Path_93929" d="M1307.675 961.393a1.041 1.041 0 1 1-1.386-.5 1.043 1.043 0 0 1 1.386.5z" class="cls-1" transform="translate(-1305.693 -960.795)"/>
                    </g>
                </g>
                <g id="Group_11664" transform="translate(4.12 13.952)">
                    <g id="Group_11663">
                        <path id="Path_93930" d="M1304.239 969.025a1.041 1.041 0 1 1-1.384-.5 1.039 1.039 0 0 1 1.384.5z" class="cls-1" transform="translate(-1302.257 -968.427)"/>
                    </g>
                </g>
                <g id="Group_11666" transform="translate(6.102 11.961)">
                    <g id="Group_11665">
                        <path id="Path_93931" d="M1304.881 967.394a.644.644 0 1 1-.858-.308.645.645 0 0 1 .858.308z" class="cls-1" transform="translate(-1303.653 -967.025)"/>
                    </g>
                </g>
                <g id="Group_11668" transform="translate(10.09 19.622)">
                    <g id="Group_11667">
                        <path id="Path_93932" d="M1307.69 972.79a.644.644 0 1 1-.857-.308.644.644 0 0 1 .857.308z" class="cls-1" transform="translate(-1306.462 -972.42)"/>
                    </g>
                </g>
                <g id="Group_11670" transform="translate(25.552 27.575)">
                    <g id="Group_11669">
                        <path id="Path_93933" d="M1318.58 978.392a.644.644 0 1 1-.858-.308.643.643 0 0 1 .858.308z" class="cls-1" transform="translate(-1317.353 -978.023)"/>
                    </g>
                </g>
                <g id="Group_11672" transform="translate(15.877 13.177)">
                    <g id="Group_11671">
                        <path id="Path_93934" d="M1311.767 968.251a.645.645 0 1 1-.859-.308.647.647 0 0 1 .859.308z" class="cls-1" transform="translate(-1310.539 -967.882)"/>
                    </g>
                </g>
                <g id="Group_11674" transform="translate(9.109 1.226)">
                    <g id="Group_11673">
                        <path id="Path_93935" d="M1307 959.833a.645.645 0 1 1-.859-.308.646.646 0 0 1 .859.308z" class="cls-1" transform="translate(-1305.771 -959.464)"/>
                    </g>
                </g>
                <g id="Group_11676" transform="translate(0 2.712)">
                    <g id="Group_11675">
                        <path id="Path_93936" d="M1300.583 960.88a.644.644 0 1 1-.858-.308.645.645 0 0 1 .858.308z" class="cls-1" transform="translate(-1299.356 -960.51)"/>
                    </g>
                </g>
                <g id="Group_11678" transform="translate(17.687 35.032)">
                    <g id="Group_11677">
                        <path id="Path_93937" d="M1313.041 983.644a.644.644 0 1 1-.858-.308.643.643 0 0 1 .858.308z" class="cls-1" transform="translate(-1311.814 -983.274)"/>
                    </g>
                </g>
                <g id="Group_11680" transform="translate(25.798 25.059)">
                    <g id="Group_11679">
                        <path id="Path_93938" d="M1318.48 976.537a.5.5 0 1 1-.666-.239.5.5 0 0 1 .666.239z" class="cls-1" transform="translate(-1317.526 -976.25)"/>
                    </g>
                </g>
                <g id="Group_11682" transform="translate(12.781 24.227)">
                    <g id="Group_11681">
                        <path id="Path_93939" d="M1309.913 976.132a.816.816 0 1 1-1.086-.39.818.818 0 0 1 1.086.39z" class="cls-1" transform="translate(-1308.358 -975.664)"/>
                    </g>
                </g>
                <g id="Group_11684" transform="translate(16.987 10.922)">
                    <g id="Group_11683">
                        <path id="Path_93940" d="M1313.3 966.889a1.041 1.041 0 1 1-1.384-.5 1.04 1.04 0 0 1 1.384.5z" class="cls-1" transform="translate(-1311.32 -966.293)"/>
                    </g>
                </g>
                <g id="Group_11686" transform="translate(23.858 22.505)">
                    <g id="Group_11685">
                        <path id="Path_93941" d="M1318.141 975.049a1.041 1.041 0 1 1-1.384-.5 1.041 1.041 0 0 1 1.384.5z" class="cls-1" transform="translate(-1316.159 -974.452)"/>
                    </g>
                </g>
                <g id="Group_11688" transform="translate(19.998 33.9)">
                    <g id="Group_11687">
                        <path id="Path_93942" d="M1314.723 982.864a.673.673 0 1 1-.9-.322.672.672 0 0 1 .9.322z" class="cls-1" transform="translate(-1313.441 -982.478)"/>
                    </g>
                </g>
                <g id="Group_11690" transform="translate(28.988 27.436)">
                    <g id="Group_11689">
                        <path id="Path_93943" d="M1321.055 978.312a.673.673 0 1 1-.9-.322.673.673 0 0 1 .9.322z" class="cls-1" transform="translate(-1319.773 -977.924)"/>
                    </g>
                </g>
                <g id="Group_11692" transform="translate(10.688 23.306)">
                    <g id="Group_11691">
                        <path id="Path_93944" d="M1308.166 975.4a.674.674 0 1 1-.9-.321.674.674 0 0 1 .9.321z" class="cls-1" transform="translate(-1306.883 -975.015)"/>
                    </g>
                </g>
                <g id="Group_11695" transform="translate(10.666 20.11)">
                    <g id="Group_11694">
                        <g id="Group_11693">
                            <path id="Path_93945" d="M1306.928 972.768a17.758 17.758 0 0 1 4.045 2.869c.071.058.079.363-.021.28a17.56 17.56 0 0 0-4.005-2.844c-.092-.041-.109-.345-.018-.305z" class="cls-1" transform="translate(-1306.868 -972.764)"/>
                        </g>
                    </g>
                </g>
                <g id="Group_11698" transform="translate(26.121 28.077)">
                    <g id="Group_11697">
                        <g id="Group_11696">
                            <path id="Path_93946" d="M1317.889 978.466a18.106 18.106 0 0 1 .862 4.945c.02.212-.139.084-.152-.057a17.467 17.467 0 0 0-.83-4.78c-.052-.135.044-.305.121-.108z" class="cls-1" transform="translate(-1317.754 -978.376)"/>
                        </g>
                    </g>
                </g>
                <g id="Group_11701" transform="translate(2.359)">
                    <g id="Group_11700">
                        <g id="Group_11699">
                            <path id="Path_93947" d="M1301.111 958.634a17.893 17.893 0 0 1 2.247 4.432c.04.1-.016.365-.094.179a17.657 17.657 0 0 0-2.213-4.374c-.057-.073-.047-.371.06-.237z" class="cls-1" transform="translate(-1301.017 -958.6)"/>
                        </g>
                    </g>
                </g>
            </g>
        </g>
        <g id="Group_11717" transform="translate(-1309.193 371.44)">
            <g id="Group_11716" transform="translate(2585.876 612.885)">
                <g id="Group_11713">
                    <path id="Path_93970" d="M2612.577 618.095a1 1 0 0 1-.281.373.827.827 0 0 1-.365.188.4.4 0 0 1-.4-.088.386.386 0 0 1-.068-.368 2.834 2.834 0 0 1 .156-.456 2.747 2.747 0 0 0 .152-.441 2.318 2.318 0 0 0-.2-1.851 2.749 2.749 0 0 0-1.577-1.1 8.923 8.923 0 0 0-2.829-.314 23.1 23.1 0 0 0-3.93.473 32.4 32.4 0 0 0-3.46.893 35.858 35.858 0 0 0-3.45 1.287 29.226 29.226 0 0 0-3.207 1.629 20.026 20.026 0 0 0-2.745 1.927 12.657 12.657 0 0 0-2.046 2.149 6.56 6.56 0 0 0-1.124 2.321 2.658 2.658 0 0 0 0 1.551 2.042 2.042 0 0 0 .8 1.01 4.067 4.067 0 0 0 1.433.567 10.614 10.614 0 0 0 1.911.214q1.05.031 2.215-.048t2.358-.213l2.3-.266q1.715-.194 3.062-.3a18.339 18.339 0 0 1 2.333-.057 3.43 3.43 0 0 1 2.28.747 2.053 2.053 0 0 1 .3 2.018 5.994 5.994 0 0 1-1.3 2.464 11.113 11.113 0 0 1-2.412 2.077 17.22 17.22 0 0 1-3.212 1.616 22.56 22.56 0 0 1-3.713 1.065 21.713 21.713 0 0 1-3.627.45 17.312 17.312 0 0 1-2.513-.1 7.607 7.607 0 0 1-1.483-.306c-.329-.118-.506-.184-.531-.2q-.237-.1-.155-.431a.876.876 0 0 1 .286-.453.957.957 0 0 1 .435-.238.408.408 0 0 1 .283.031q.015 0 .46.161a6.706 6.706 0 0 0 1.379.282 16.083 16.083 0 0 0 2.365.081 20.731 20.731 0 0 0 3.411-.428 21.124 21.124 0 0 0 3.554-1 14.561 14.561 0 0 0 2.756-1.388 8.39 8.39 0 0 0 1.885-1.641 4.5 4.5 0 0 0 .936-1.764 1.785 1.785 0 0 0 .036-.88 1.059 1.059 0 0 0-.361-.564 1.766 1.766 0 0 0-.682-.32 4.919 4.919 0 0 0-.932-.134 11.065 11.065 0 0 0-1.178-.012q-.636.024-1.319.087t-1.376.142q-.694.08-1.365.154l-2.3.267a31.2 31.2 0 0 1-4.665.251 9.435 9.435 0 0 1-3.134-.55 2.858 2.858 0 0 1-1.614-1.391 3.442 3.442 0 0 1-.082-2.306 8.007 8.007 0 0 1 1.294-2.743 14.39 14.39 0 0 1 2.3-2.494 21.15 21.15 0 0 1 3.032-2.178 32.107 32.107 0 0 1 3.5-1.809 35.956 35.956 0 0 1 3.71-1.4 33.938 33.938 0 0 1 3.655-.945 24.68 24.68 0 0 1 3.782-.494 12.8 12.8 0 0 1 2.636.128 4.785 4.785 0 0 1 1.679.57 3.585 3.585 0 0 1 .945.809 3.043 3.043 0 0 1 .374 2.652 6.144 6.144 0 0 1-.357 1.037z" class="cls-1" transform="translate(-2585.876 -612.885)"/>
                    <path id="Path_93971" d="M2658.178 651.063l-.377.558c-.191.283-.426.611-.707.983s-.6.767-.952 1.183a13.2 13.2 0 0 1-1.131 1.175 8.974 8.974 0 0 1-1.238.958 3.671 3.671 0 0 1-1.262.531 1.447 1.447 0 0 1-1.347-.268 1.843 1.843 0 0 1-.529-1.237 8.5 8.5 0 0 1-1.573 1.616 3.872 3.872 0 0 1-1.559.791 2.09 2.09 0 0 1-.97 0 1.15 1.15 0 0 1-.635-.422 1.573 1.573 0 0 1-.28-.774 3.054 3.054 0 0 1 .095-1.057 7.2 7.2 0 0 1 .919-2.164 8.955 8.955 0 0 1 1.4-1.712 7.788 7.788 0 0 1 1.6-1.182 5.437 5.437 0 0 1 1.531-.59 2.551 2.551 0 0 1 .836-.043 2.736 2.736 0 0 1 .609.147 1.4 1.4 0 0 1 .365.2c.08.066.124.1.132.111a.434.434 0 0 1 .066.376.932.932 0 0 1-.267.435.875.875 0 0 1-.44.253.375.375 0 0 1-.37-.086 1.017 1.017 0 0 0-.109-.087.953.953 0 0 0-.246-.117 1.618 1.618 0 0 0-.4-.074 2.084 2.084 0 0 0-.555.045 3.832 3.832 0 0 0-1.059.411 5.238 5.238 0 0 0-1.138.852 6.859 6.859 0 0 0-1.017 1.268 5.6 5.6 0 0 0-.693 1.658 2.92 2.92 0 0 0-.083.572 1.109 1.109 0 0 0 .08.5.6.6 0 0 0 .314.313 1 1 0 0 0 .6.025 2.136 2.136 0 0 0 .677-.307 4.336 4.336 0 0 0 .824-.7 7.489 7.489 0 0 0 .831-1.073 7.31 7.31 0 0 0 .711-1.438.983.983 0 0 1 .286-.4.927.927 0 0 1 .432-.222.324.324 0 0 1 .332.093.393.393 0 0 1 .082.344q-.057.285-.14.8a4.4 4.4 0 0 0-.051 1 1.523 1.523 0 0 0 .259.8.722.722 0 0 0 .791.2 2.2 2.2 0 0 0 .773-.34 6.452 6.452 0 0 0 .83-.661 11.506 11.506 0 0 0 .839-.873q.414-.478.779-.954t.659-.909q.3-.434.5-.749a1.087 1.087 0 0 1 .285-.3.865.865 0 0 1 .335-.152.339.339 0 0 1 .373.107.432.432 0 0 1 .06.37.757.757 0 0 1-.077.216z" class="cls-1" transform="translate(-2624.033 -636.203)"/>
                    <path id="Path_93972" d="M2683.713 644.331a14.855 14.855 0 0 1-1.145 2.109 18.749 18.749 0 0 1-1.3 1.778 10.123 10.123 0 0 1-1.234 1.268 2.881 2.881 0 0 1-.943.59.936.936 0 0 1-.779-.221 2.232 2.232 0 0 1-.643-.918 4.623 4.623 0 0 1-.31-1.533 7 7 0 0 1 .231-2.051 6.579 6.579 0 0 1 .55-1.551q.3-.55.367-.635a1.068 1.068 0 0 1 .258-.253.835.835 0 0 1 .316-.134.343.343 0 0 1 .368.093.4.4 0 0 1 .057.356.772.772 0 0 1-.124.27c-.016.022-.095.168-.239.437a5.168 5.168 0 0 0-.4 1.161 6.95 6.95 0 0 0-.225 1.616 4.927 4.927 0 0 0 .12 1.217 1.955 1.955 0 0 0 .33.75c.136.17.266.243.387.219a1.177 1.177 0 0 0 .415-.3 7.532 7.532 0 0 0 .656-.721q.364-.446.781-1.049t.813-1.293a14.329 14.329 0 0 0 .718-1.44 9.549 9.549 0 0 0 .506-1.491c.025-.1.047-.2.066-.294s.04-.193.065-.294a1 1 0 0 1 .267-.464.887.887 0 0 1 .462-.257.416.416 0 0 1 .328.051.315.315 0 0 1 .124.293v.23a4.661 4.661 0 0 0 .043.619 6.805 6.805 0 0 0 .15.8 2.612 2.612 0 0 0 .318.766 1.531 1.531 0 0 0 .557.532 1.269 1.269 0 0 0 .877.086 1.442 1.442 0 0 0 .533-.221 2.6 2.6 0 0 0 .418-.342 2.456 2.456 0 0 0 .277-.328 1.541 1.541 0 0 0 .106-.165 1.015 1.015 0 0 1 .271-.306.877.877 0 0 1 .352-.163.363.363 0 0 1 .369.094.386.386 0 0 1 .069.368.775.775 0 0 1-.1.221 6.275 6.275 0 0 1-.386.538 4.81 4.81 0 0 1-.578.6 4.345 4.345 0 0 1-.747.529 2.91 2.91 0 0 1-.87.323 2.2 2.2 0 0 1-.944.006 1.956 1.956 0 0 1-.71-.321 2.214 2.214 0 0 1-.513-.533 2.792 2.792 0 0 1-.335-.642z" class="cls-1" transform="translate(-2644.312 -631.028)"/>
                    <path id="Path_93973" d="M2706.922 644.437a1.2 1.2 0 0 0 .649.543 2.173 2.173 0 0 0 1.168.022 3.881 3.881 0 0 0 1.445-.624 8.525 8.525 0 0 0 1.343-1.152 14.136 14.136 0 0 0 1.218-1.466q.572-.791 1.068-1.567a1.055 1.055 0 0 1 .275-.292.85.85 0 0 1 .325-.143.35.35 0 0 1 .375.1.406.406 0 0 1 .062.363.579.579 0 0 1-.047.132 1.076 1.076 0 0 1-.074.123 20.428 20.428 0 0 1-3.152 3.925 6.745 6.745 0 0 1-3.108 1.753 3.021 3.021 0 0 1-1.642-.043 1.86 1.86 0 0 1-.956-.763 2.6 2.6 0 0 1-.358-1.249 5.139 5.139 0 0 1 .153-1.5 6.829 6.829 0 0 1 .543-1.463 6.287 6.287 0 0 1 .83-1.245 4.986 4.986 0 0 1 1.041-.927 3.24 3.24 0 0 1 1.157-.488 1.5 1.5 0 0 1 .658.007 1.071 1.071 0 0 1 .516.288 1.093 1.093 0 0 1 .283.557 1.871 1.871 0 0 1-.046.831 4.484 4.484 0 0 1-.5 1.209 7.1 7.1 0 0 1-.838 1.131 9.5 9.5 0 0 1-1.1 1.041 11.868 11.868 0 0 1-1.288.897zm-.214-.9a6.651 6.651 0 0 0 .984-.671 6.915 6.915 0 0 0 .828-.8 5.61 5.61 0 0 0 .616-.85 3.2 3.2 0 0 0 .352-.841.7.7 0 0 0-.058-.645.472.472 0 0 0-.475-.129 1.694 1.694 0 0 0-.757.366 3.277 3.277 0 0 0-.619.685 4.924 4.924 0 0 0-.467.864 6.233 6.233 0 0 0-.3.9 3.357 3.357 0 0 0-.089.566 5.121 5.121 0 0 0-.015.56z" class="cls-1" transform="translate(-2662.299 -629.209)"/>
                </g>
                <g id="Group_11714" transform="translate(8.395 35.9)">
                    <path id="Path_93974" d="M2615.729 732.4q.19 3.282 1.623 2.99a2.517 2.517 0 0 0 1.128-.611 9.028 9.028 0 0 0 1.106-1.16 14.343 14.343 0 0 0 .977-1.372q.444-.709.738-1.229a.863.863 0 0 1 .6-.467.4.4 0 0 1 .386.094.386.386 0 0 1 .106.352.592.592 0 0 1-.08.218q-.15.274-.427.741t-.658 1.012q-.379.545-.832 1.126a10.121 10.121 0 0 1-.966 1.075 7.675 7.675 0 0 1-1.056.855 3.1 3.1 0 0 1-1.1.476 1.842 1.842 0 0 1-1.658-.33 3.493 3.493 0 0 1-.9-2.022 12.138 12.138 0 0 1-1.856 2.507 3.6 3.6 0 0 1-1.746 1.018 2.65 2.65 0 0 1-.871.042 1.165 1.165 0 0 1-.677-.314 1.489 1.489 0 0 1-.386-.734 3.13 3.13 0 0 1 .007-1.217 6.2 6.2 0 0 1 .68-1.965 8.23 8.23 0 0 1 1.2-1.675 7.413 7.413 0 0 1 1.46-1.226 4.481 4.481 0 0 1 1.481-.633.422.422 0 0 1 .375.074.361.361 0 0 1 .1.36.811.811 0 0 1-.2.4.881.881 0 0 1-.4.269 5.346 5.346 0 0 0-1.033.484 5.291 5.291 0 0 0-1.069.844 5.5 5.5 0 0 0-.9 1.227 5.017 5.017 0 0 0-.542 1.621 1.491 1.491 0 0 0 .125 1.1.759.759 0 0 0 .848.23 1.747 1.747 0 0 0 .545-.234 3.107 3.107 0 0 0 .675-.619 10.938 10.938 0 0 0 .867-1.2q.49-.761 1.135-1.972-.046-1.255.019-2.923a31.152 31.152 0 0 1 .413-3.779q.152-.923.379-1.94t.522-2q.3-.988.669-1.9a11.658 11.658 0 0 1 .812-1.633 5.472 5.472 0 0 1 .948-1.193 2.246 2.246 0 0 1 1.08-.587 1.1 1.1 0 0 1 .818.091 1.137 1.137 0 0 1 .456.626 3.4 3.4 0 0 1 .143 1.078 9.178 9.178 0 0 1-.134 1.451 23.111 23.111 0 0 1-.876 3.514q-.592 1.789-1.3 3.459t-1.442 3.113q-.741 1.437-1.312 2.488zm3.773-12.36q.062-.372.109-.8a4.615 4.615 0 0 0 .025-.789 1.776 1.776 0 0 0-.12-.587.268.268 0 0 0-.328-.178q-.385.079-.824.8a11.21 11.21 0 0 0-.86 1.837 26.092 26.092 0 0 0-.789 2.491q-.368 1.376-.592 2.745-.216 1.31-.323 2.6t-.138 2.286q.636-1.237 1.235-2.531t1.108-2.621q.508-1.326.9-2.649a21.786 21.786 0 0 0 .595-2.603z" class="cls-1" transform="translate(-2609.121 -715)"/>
                    <path id="Path_93975" d="M2653.553 748.335l-.335.55q-.256.419-.636.971t-.869 1.17a11.883 11.883 0 0 1-1.055 1.164 8.221 8.221 0 0 1-1.184.953 3.582 3.582 0 0 1-1.249.536 1.616 1.616 0 0 1-1.411-.244 1.937 1.937 0 0 1-.659-1.2 7.54 7.54 0 0 1-1.469 1.6 3.7 3.7 0 0 1-1.53.795 2.274 2.274 0 0 1-1 .009 1.316 1.316 0 0 1-.693-.4 1.623 1.623 0 0 1-.36-.753 2.8 2.8 0 0 1 0-1.035 6.317 6.317 0 0 1 .745-2.13 7.891 7.891 0 0 1 1.283-1.693 7.145 7.145 0 0 1 1.541-1.177 5.353 5.353 0 0 1 1.52-.6 2.717 2.717 0 0 1 .858-.053 3.092 3.092 0 0 1 .64.135 1.629 1.629 0 0 1 .394.186l.146.107a.429.429 0 0 1 .1.367.813.813 0 0 1-.234.429.822.822 0 0 1-.429.253.421.421 0 0 1-.389-.079 1.219 1.219 0 0 0-.121-.083 1.1 1.1 0 0 0-.264-.111 1.826 1.826 0 0 0-.413-.066 2.189 2.189 0 0 0-.567.051 3.767 3.767 0 0 0-1.051.416 4.781 4.781 0 0 0-1.093.849 6 6 0 0 0-.927 1.254 4.887 4.887 0 0 0-.559 1.631 2.645 2.645 0 0 0-.032.56 1.089 1.089 0 0 0 .129.484.676.676 0 0 0 .352.3 1.1 1.1 0 0 0 .623.017 2.084 2.084 0 0 0 .668-.309 3.931 3.931 0 0 0 .784-.692 6.586 6.586 0 0 0 .755-1.06 6.367 6.367 0 0 0 .6-1.416.871.871 0 0 1 .258-.391.885.885 0 0 1 .424-.223.368.368 0 0 1 .35.087.4.4 0 0 1 .116.336q-.031.28-.069.783a4.062 4.062 0 0 0 .041.977 1.559 1.559 0 0 0 .341.779.808.808 0 0 0 .832.19 2.126 2.126 0 0 0 .763-.343 5.758 5.758 0 0 0 .793-.658 10.122 10.122 0 0 0 .782-.864q.383-.474.713-.944t.594-.9q.264-.427.449-.738a.961.961 0 0 1 .265-.3.828.828 0 0 1 .33-.154.381.381 0 0 1 .393.1.423.423 0 0 1 .1.361.672.672 0 0 1-.084.216z" class="cls-1" transform="translate(-2629.52 -734.321)"/>
                    <path id="Path_93976" d="M2679.143 713.222a.706.706 0 0 1-.231.414.923.923 0 0 1-.439.226l-7.811 1.595-.026.163a17.007 17.007 0 0 1-.457 1.963q-.308 1.055-.714 2.123t-.866 2.1q-.458 1.029-.91 1.911t-.857 1.548a8.385 8.385 0 0 1-.7 1.013 6.27 6.27 0 0 0 .269 1.175 3.252 3.252 0 0 0 .455.9 1.714 1.714 0 0 0 .634.539 1.274 1.274 0 0 0 .821.076 2.518 2.518 0 0 0 1.143-.657 10.509 10.509 0 0 0 1.157-1.242q.554-.7 1-1.384t.663-1.092a.861.861 0 0 1 .6-.467.394.394 0 0 1 .394.092.4.4 0 0 1 .1.354.694.694 0 0 1-.08.218c-.042.076-.144.25-.3.521s-.361.591-.6.958-.521.756-.833 1.169a10.926 10.926 0 0 1-1.01 1.163 8.283 8.283 0 0 1-1.131.95 3.221 3.221 0 0 1-1.189.531 2.283 2.283 0 0 1-1.8-.28 3.108 3.108 0 0 1-1.133-1.58 8.442 8.442 0 0 1-.432-2.673 19.319 19.319 0 0 1 .286-3.552q.081-.491.205-1.156t.292-1.411q.167-.746.388-1.546t.5-1.575l-5.53 1.129a.479.479 0 0 1-.393-.057.326.326 0 0 1-.107-.345.7.7 0 0 1 .232-.414.908.908 0 0 1 .438-.226l5.793-1.183a9.967 9.967 0 0 1 .523-1.056 5.884 5.884 0 0 1 .6-.872 3.621 3.621 0 0 1 .685-.636 2.018 2.018 0 0 1 .762-.336.976.976 0 0 1 .64.049.9.9 0 0 1 .4.413 1.979 1.979 0 0 1 .189.71 6.33 6.33 0 0 1 .016.946l7.872-1.608a.48.48 0 0 1 .393.057.325.325 0 0 1 .099.342zm-13.123 11.638q.624-1.076 1.188-2.292t1.025-2.431q.46-1.216.791-2.361a18.473 18.473 0 0 0 .483-2.083l-1.817.372a21.982 21.982 0 0 0-.722 2.355q-.355 1.388-.675 3.337-.179 1.086-.238 1.81a10.424 10.424 0 0 0-.035 1.293zm3.262-11.422a1.2 1.2 0 0 0-.448.372 5.084 5.084 0 0 0-.7 1.156l1.479-.3a3.311 3.311 0 0 0-.061-.937q-.086-.329-.271-.291z" class="cls-1" transform="translate(-2641.93 -712.28)"/>
                    <path id="Path_93977" d="M2694.372 743a1.378 1.378 0 0 0 .719.522 2.355 2.355 0 0 0 1.2.005 3.758 3.758 0 0 0 1.429-.63 7.615 7.615 0 0 0 1.28-1.147 12.29 12.29 0 0 0 1.116-1.45q.516-.781.954-1.547a.923.923 0 0 1 .256-.289.827.827 0 0 1 .322-.145.4.4 0 0 1 .395.092.4.4 0 0 1 .1.354.567.567 0 0 1-.036.13.886.886 0 0 1-.064.121 17.93 17.93 0 0 1-2.879 3.881 6.359 6.359 0 0 1-3.035 1.755 3.28 3.28 0 0 1-1.694-.02 2.122 2.122 0 0 1-1.056-.733 2.648 2.648 0 0 1-.485-1.217 4.742 4.742 0 0 1 .018-1.471 5.981 5.981 0 0 1 .423-1.437 5.478 5.478 0 0 1 .738-1.229 4.487 4.487 0 0 1 .985-.921 3.152 3.152 0 0 1 1.145-.493 1.623 1.623 0 0 1 .677 0 1.231 1.231 0 0 1 .558.274 1.176 1.176 0 0 1 .343.541 1.746 1.746 0 0 1 .031.813 3.939 3.939 0 0 1-.4 1.189 6.251 6.251 0 0 1-.757 1.118 8.6 8.6 0 0 1-1.041 1.032 10.883 10.883 0 0 1-1.242.902zm-.3-.873a6.245 6.245 0 0 0 1.729-1.46 4.89 4.89 0 0 0 .555-.839 2.829 2.829 0 0 0 .284-.827.685.685 0 0 0-.119-.63.533.533 0 0 0-.5-.121 1.624 1.624 0 0 0-.745.368 2.869 2.869 0 0 0-.573.677 4.24 4.24 0 0 0-.4.851 5.514 5.514 0 0 0-.228.888 3.149 3.149 0 0 0-.039.555 4.816 4.816 0 0 0 .033.535z" class="cls-1" transform="translate(-2662.604 -728.132)"/>
                </g>
                <g id="Group_11715" transform="translate(27.473 23.753)">
                    <path id="Path_93978" d="M2669.673 684.934a.3.3 0 0 1-.111.167.364.364 0 0 1-.187.081l-3.234.393-.017.069a7.315 7.315 0 0 1-.261.816q-.166.437-.372.875t-.433.859q-.226.42-.443.779t-.408.626a3.607 3.607 0 0 1-.325.4 2.865 2.865 0 0 0 .064.509 1.4 1.4 0 0 0 .15.4.7.7 0 0 0 .237.252.5.5 0 0 0 .331.063 1.02 1.02 0 0 0 .489-.238 4.411 4.411 0 0 0 .518-.485q.251-.276.46-.551t.312-.44a.355.355 0 0 1 .26-.176.154.154 0 0 1 .157.053.176.176 0 0 1 .026.154.3.3 0 0 1-.041.09l-.143.211q-.113.165-.282.384t-.383.466a4.614 4.614 0 0 1-.455.457 3.437 3.437 0 0 1-.5.362 1.29 1.29 0 0 1-.5.182.9.9 0 0 1-.72-.184 1.322 1.322 0 0 1-.4-.712 3.742 3.742 0 0 1-.072-1.15 8.56 8.56 0 0 1 .253-1.5c.034-.137.077-.3.128-.483s.109-.381.173-.589.137-.421.218-.642.168-.438.262-.651l-2.29.278a.188.188 0 0 1-.157-.038.141.141 0 0 1-.031-.15.3.3 0 0 1 .111-.167.363.363 0 0 1 .186-.08l2.4-.292a4.423 4.423 0 0 1 .253-.429 2.606 2.606 0 0 1 .28-.348 1.516 1.516 0 0 1 .3-.245.8.8 0 0 1 .323-.115.344.344 0 0 1 .4.234.9.9 0 0 1 .05.308 2.97 2.97 0 0 1-.03.4l3.26-.4a.19.19 0 0 1 .157.038.143.143 0 0 1 .037.159zm-5.781 4.464q.3-.435.571-.929t.51-1q.235-.5.413-.974a8.239 8.239 0 0 0 .277-.867l-.753.091a9.684 9.684 0 0 0-.384.974q-.2.576-.4 1.392-.115.455-.166.76a4.5 4.5 0 0 0-.068.555zm1.766-4.73a.487.487 0 0 0-.2.141 2.172 2.172 0 0 0-.328.465l.613-.074a1.457 1.457 0 0 0 .011-.4c-.011-.094-.045-.139-.096-.132z" class="cls-1" transform="translate(-2661.939 -682.191)"/>
                    <path id="Path_93979" d="M2673.956 687.294q.156-.224.352-.487t.414-.539q.218-.277.454-.553c.158-.184.317-.359.478-.523a2.144 2.144 0 0 1 .452-.36 1.064 1.064 0 0 1 .378-.139.5.5 0 0 1 .274.03.325.325 0 0 1 .16.152.581.581 0 0 1 .055.247 1.189 1.189 0 0 1-.04.319c-.024.1-.066.225-.125.386a4.992 4.992 0 0 0-.155.505 2.9 2.9 0 0 0-.059.293 1 1 0 0 0-.009.255.266.266 0 0 0 .078.172.235.235 0 0 0 .2.046.859.859 0 0 0 .328-.121 2.354 2.354 0 0 0 .356-.261q.182-.158.36-.345c.118-.125.228-.249.328-.372s.193-.241.275-.354.149-.206.2-.281a.354.354 0 0 1 .259-.17.146.146 0 0 1 .153.054.181.181 0 0 1 .024.154.318.318 0 0 1-.042.1c-.026.035-.076.108-.151.218s-.171.238-.288.385-.251.3-.4.465a5.365 5.365 0 0 1-.471.459 3.258 3.258 0 0 1-.513.364 1.4 1.4 0 0 1-.518.181.649.649 0 0 1-.441-.065.488.488 0 0 1-.2-.274 1.028 1.028 0 0 1-.029-.4 3.145 3.145 0 0 1 .078-.445c.019-.075.042-.154.07-.241s.056-.17.086-.255l.081-.236c.025-.074.043-.135.056-.185a.4.4 0 0 0 .012-.255.1.1 0 0 0-.108-.053.569.569 0 0 0-.261.143 3.7 3.7 0 0 0-.351.336q-.19.2-.393.455t-.394.5c-.128.165-.246.321-.353.468l-.266.368a1.563 1.563 0 0 1-.359.384.661.661 0 0 1-.269.12.228.228 0 0 1-.264-.116.52.52 0 0 1-.013-.358l.1-.392q.3-1.177.568-2.245t.532-1.991q.26-.922.514-1.674a10.839 10.839 0 0 1 .521-1.294 3.753 3.753 0 0 1 .546-.854.957.957 0 0 1 .592-.35.536.536 0 0 1 .417.088.611.611 0 0 1 .2.352 1.744 1.744 0 0 1 .022.553 4.687 4.687 0 0 1-.122.682 9.382 9.382 0 0 1-.5 1.459 14.663 14.663 0 0 1-.714 1.424q-.4.7-.866 1.376t-.957 1.321l-.068.268-.079.312-.073.292-.055.218zm.579-2.3q.412-.606.77-1.178t.65-1.133q.292-.561.522-1.129a8.961 8.961 0 0 0 .382-1.172c.017-.066.04-.172.071-.317a2.6 2.6 0 0 0 .053-.435.978.978 0 0 0-.048-.375.2.2 0 0 0-.235-.134.466.466 0 0 0-.289.213 3.047 3.047 0 0 0-.3.52q-.156.323-.313.747t-.306.894q-.149.471-.289.965t-.263.959c-.082.311-.157.6-.225.87l-.18.711z" class="cls-1" transform="translate(-2669.273 -678.65)"/>
                    <path id="Path_93980" d="M2688.273 696.115a.559.559 0 0 0 .271.248.927.927 0 0 0 .49.046 1.511 1.511 0 0 0 .6-.215 3.184 3.184 0 0 0 .562-.44 5.279 5.279 0 0 0 .509-.575q.24-.313.448-.622a.383.383 0 0 1 .115-.114.327.327 0 0 1 .136-.05.156.156 0 0 1 .157.053.176.176 0 0 1 .025.154.3.3 0 0 1-.019.053.357.357 0 0 1-.031.049 7.673 7.673 0 0 1-1.319 1.543 2.585 2.585 0 0 1-1.3.635 1.285 1.285 0 0 1-.687-.07.866.866 0 0 1-.4-.35 1.157 1.157 0 0 1-.15-.534 2.128 2.128 0 0 1 .064-.623 2.679 2.679 0 0 1 .228-.595 2.389 2.389 0 0 1 .347-.5 1.888 1.888 0 0 1 .436-.355 1.252 1.252 0 0 1 .484-.167.637.637 0 0 1 .276.023.5.5 0 0 1 .215.136.509.509 0 0 1 .119.242.782.782 0 0 1-.02.347 1.737 1.737 0 0 1-.21.49 2.68 2.68 0 0 1-.351.447 3.53 3.53 0 0 1-.462.4 4.428 4.428 0 0 1-.533.344zm-.09-.381a2.453 2.453 0 0 0 .413-.25 2.538 2.538 0 0 0 .347-.307 2.1 2.1 0 0 0 .258-.337 1.233 1.233 0 0 0 .147-.341.3.3 0 0 0-.024-.272.21.21 0 0 0-.2-.07.653.653 0 0 0-.317.13 1.212 1.212 0 0 0-.259.267 1.8 1.8 0 0 0-.2.346 2.4 2.4 0 0 0-.127.368 1.481 1.481 0 0 0-.038.234c.001.083-.001.16.001.232z" class="cls-1" transform="translate(-2678.384 -688.255)"/>
                </g>
            </g>
        </g>
    </g>
</svg>
