<svg xmlns="http://www.w3.org/2000/svg" width="121.999" height="15.638" viewBox="0 0 121.999 15.638">
    <defs>
        <style>
            .cls-1,.cls-15{fill:#6b9189}.cls-12,.cls-14,.cls-2,.cls-6{fill:#3c655c}.cls-11,.cls-3{fill:#598078}.cls-3{opacity:.32}.cls-10,.cls-12,.cls-13,.cls-14,.cls-15,.cls-3,.cls-6,.cls-7,.cls-9{isolation:isolate}.cls-4{fill:#7f704f}.cls-17,.cls-5{fill:none}.cls-6,.cls-7,.cls-9{opacity:.44}.cls-7{fill:#49766e}.cls-8{fill:#abbdad}.cls-9{fill:#92b898}.cls-10{fill:#89ae8e}.cls-10,.cls-12{opacity:.16}.cls-13,.cls-16{fill:#cfc485}.cls-13{opacity:.6}.cls-14{opacity:.3}.cls-15{opacity:.73}.cls-17{stroke:#6b9189;stroke-miterlimit:10;stroke-width:.75px}
        </style>
    </defs>
    <g id="separator_floral_14" transform="translate(-203.958 -209.688)">
        <g id="Group_11804">
            <g id="Group_11802">
                <g id="Group_11759">
                    <path id="Path_208965" d="M209.671 215.646c-1.24-.642-2.368-1.788-3.76-1.671a5.67 5.67 0 0 1 6.775-.953c.614.338 2.15 1.322 2.1 2.129-.128 1.84-4.203.967-5.115.495z" class="cls-1"/>
                    <path id="Path_208966" d="M212.954 216.043a1.082 1.082 0 0 1-.534-.07.455.455 0 0 1-.28-.427c.011-.117.313-.335.363-.44.361-.769-1.407-2.264-.637-2.2a3.058 3.058 0 0 1 2.242 1.558c.651 1.197-.178 1.518-1.154 1.579z" class="cls-2"/>
                    <path id="Path_208967" d="M208.145 214.437a4.686 4.686 0 0 0-1.8-.6 5.344 5.344 0 0 1 1.982-1.021 1.267 1.267 0 0 1 1.267.176.319.319 0 0 1 .1.22.771.771 0 0 1-.064.2c-.1.321.2.637.208.976a.611.611 0 0 1-.575.609c-.383-.007-.802-.377-1.118-.56z" class="cls-3"/>
                    <path id="Path_208968" d="M217.421 215.555a8.6 8.6 0 0 1-2.959-.014 8.327 8.327 0 0 1-1.431-.384c-.465-.161-.923-.338-1.383-.51a15.643 15.643 0 0 0-2.809-.849 5.878 5.878 0 0 0-2.906.142 5.922 5.922 0 0 1 2.914-.189 15.749 15.749 0 0 1 2.834.808c.462.165.923.335 1.388.488a8.3 8.3 0 0 0 1.416.357 8.413 8.413 0 0 0 2.9-.03z" class="cls-4"/>
                    <g id="Group_11758">
                        <path id="Path_208969" d="M211.548 213.187a.026.026 0 1 1-.046-.024.027.027 0 1 1 .041.034" class="cls-5"/>
                        <path id="Path_208970" d="M211.724 213.545a.027.027 0 0 1-.036.009.026.026 0 1 1 .026-.045.027.027 0 0 1 0 .039" class="cls-5"/>
                        <path id="Path_208971" d="M211.312 213.008a.028.028 0 0 1-.037.01.026.026 0 0 1-.006-.036.027.027 0 0 1 .037-.007.028.028 0 0 1 0 .038" class="cls-5"/>
                        <path id="Path_208972" d="M211.351 212.732a.07.07 0 0 1-.1.025.069.069 0 1 1 .077-.114l.01.008a.074.074 0 0 1 0 .1" class="cls-5"/>
                        <path id="Path_208973" d="M210.719 213a.026.026 0 0 1-.037.009.027.027 0 0 1-.007-.037.028.028 0 0 1 .037-.006.027.027 0 0 1 0 .039" class="cls-5"/>
                        <path id="Path_208974" d="M211.135 212.947a.025.025 0 0 1-.035.011.026.026 0 0 1-.012-.035v-.005a.027.027 0 0 1 .037 0 .026.026 0 0 1 0 .038" class="cls-5"/>
                        <path id="Path_208975" d="M211.183 213.213a.079.079 0 0 1-.059.1.08.08 0 0 1-.089-.07.078.078 0 0 1 .156-.01v.01" class="cls-5"/>
                        <path id="Path_208976" d="M211.95 213.87a.077.077 0 1 1-.148.04v-.015a.078.078 0 1 1 .156 0" class="cls-5"/>
                        <path id="Path_208977" d="M211.751 212.927a.048.048 0 0 1-.093.026v-.01a.048.048 0 0 1 .045-.052.049.049 0 0 1 .053.045v.007" class="cls-5"/>
                        <path id="Path_208978" d="M210.867 212.758a.01.01 0 0 1 .008-.012.009.009 0 0 1 .011.009.01.01 0 0 1-.02 0" class="cls-5"/>
                    </g>
                </g>
                <g id="Group_11764">
                    <g id="Group_11763">
                        <path id="Path_208979" d="M221.6 217.966a30.712 30.712 0 0 0 .983-3.49 6.427 6.427 0 0 0-3.854 1.445 10.208 10.208 0 0 0-1.961 3.325 6.715 6.715 0 0 1-2.723 2.989 10.589 10.589 0 0 0 3.576-.832 6.805 6.805 0 0 0 3.979-3.437z" class="cls-1"/>
                        <path id="Path_208980" d="M221.691 216.995a7.8 7.8 0 0 1 .446-1.173 1.606 1.606 0 0 0 .2-.574.486.486 0 0 0-.276-.5.661.661 0 0 0-.3-.01 5.9 5.9 0 0 0-2.1.689 3.08 3.08 0 0 0-.9.71 1.046 1.046 0 0 0-.24.472.536.536 0 0 0 .147.49c.166.147.467.2.472.424a.528.528 0 0 1-.055.2.691.691 0 0 0 .012.532.5.5 0 0 0 .432.287c.43 0 .49-.052.8.265.2.2.41.361.642.121a4.92 4.92 0 0 0 .72-1.933z" class="cls-6"/>
                        <path id="Path_208981" d="M217.188 221.1a.681.681 0 0 0 .335-.246c.12-.2.029-.454.01-.687-.027-.327.1-.656.049-.98-.017-.116-.074-.245-.188-.271a.311.311 0 0 0-.261.1c-.56.487-.576 1.383-1.086 1.922-.176.186-.466.347-.541.6a5.065 5.065 0 0 0 1.682-.438z" class="cls-6"/>
                        <path id="Path_208982" d="M221.026 218.251a.7.7 0 0 0 .065-.55 1.3 1.3 0 0 0-.09-.206.382.382 0 0 0-.118-.157.334.334 0 0 0-.332.025.942.942 0 0 0-.417.416.728.728 0 0 0-.024.582c.19.445.738.196.916-.11z" class="cls-6"/>
                        <g id="Group_11762">
                            <g id="Group_11761">
                                <g id="Group_11760">
                                    <path id="Path_208983" d="M214.333 222.162a11.45 11.45 0 0 0 1.379-.486 10.017 10.017 0 0 0 1.3-.646 10.775 10.775 0 0 0 2.276-1.773 10.207 10.207 0 0 0 1.733-2.3c.241-.418.432-.867.652-1.309a4.108 4.108 0 0 1 .859-1.2l.013.013a4.29 4.29 0 0 0-.783 1.23c-.2.444-.383.9-.614 1.334a9.985 9.985 0 0 1-1.728 2.368 10.535 10.535 0 0 1-2.338 1.77 10.138 10.138 0 0 1-2.746 1.023z" class="cls-4"/>
                                </g>
                            </g>
                            <path id="Path_208984" d="M214.19 222.158a4.781 4.781 0 0 0 2.269-1.55 18.143 18.143 0 0 0 1.6-2.29 9.519 9.519 0 0 1 1.764-2.194 7.221 7.221 0 0 1 2.428-1.407l.006.017a8.865 8.865 0 0 0-2.311 1.528 11.091 11.091 0 0 0-1.764 2.137 18.328 18.328 0 0 1-1.65 2.271 4.833 4.833 0 0 1-2.333 1.506z" class="cls-4"/>
                            <path id="Path_208985" d="M216.28 221.177a6.915 6.915 0 0 0 2.17-1.894 27.489 27.489 0 0 0 1.729-2.283c.278-.39.564-.775.87-1.145a10.742 10.742 0 0 1 .99-1.045 8.956 8.956 0 0 1 1.169-1 4.1 4.1 0 0 1 1.263-.549l.088.23a5.575 5.575 0 0 0-2.451 1.4 10.668 10.668 0 0 0-.982 1.035c-.308.363-.6.742-.88 1.127a27.482 27.482 0 0 1-1.759 2.268 6.9 6.9 0 0 1-2.207 1.856z" class="cls-4"/>
                        </g>
                    </g>
                    <path id="Path_208986" d="M220.527 216.238a1.113 1.113 0 0 0 .511-.323c.066-.089.1-.229.014-.3a.262.262 0 0 0-.116-.05 2.354 2.354 0 0 0-1.479.273 1.947 1.947 0 0 0-1.027.872.335.335 0 0 0-.036.224c.073.259.8-.163.966-.228z" class="cls-6"/>
                </g>
                <g id="Group_11769">
                    <g id="Group_11768">
                        <path id="Path_208987" d="M234 213.638a30.421 30.421 0 0 1 1.663 3.222 6.422 6.422 0 0 1-4.065-.642 10.176 10.176 0 0 1-2.588-2.864 6.722 6.722 0 0 0-3.268-2.38 10.565 10.565 0 0 1 3.67.1 6.807 6.807 0 0 1 4.588 2.564z" class="cls-1"/>
                        <path id="Path_208988" d="M234.281 214.571a7.651 7.651 0 0 0 .673 1.06 1.616 1.616 0 0 1 .308.523.485.485 0 0 1-.17.543.675.675 0 0 1-.295.071 5.91 5.91 0 0 1-2.191-.255 3.069 3.069 0 0 1-1.029-.513 1.059 1.059 0 0 1-.33-.414.534.534 0 0 1 .046-.509c.132-.178.416-.294.377-.511a.535.535 0 0 0-.094-.184.686.686 0 0 1-.1-.524.5.5 0 0 1 .366-.367c.421-.086.49-.047.726-.419.153-.24.33-.437.6-.248a4.926 4.926 0 0 1 1.113 1.747z" class="cls-6"/>
                        <path id="Path_208989" d="M229.046 211.459a.673.673 0 0 1 .378.173c.158.172.119.439.148.671.039.326.227.623.245.951a.3.3 0 0 1-.13.3.311.311 0 0 1-.275-.045c-.647-.365-.842-1.239-1.45-1.665-.21-.147-.525-.246-.651-.481a5.063 5.063 0 0 1 1.735.096z" class="cls-6"/>
                        <path id="Path_208990" d="M233.377 213.474a.7.7 0 0 1 .175.527 1.356 1.356 0 0 1-.047.219.391.391 0 0 1-.084.178.334.334 0 0 1-.331.042.936.936 0 0 1-.491-.324.72.72 0 0 1-.14-.565c.093-.473.683-.341.918-.077z" class="cls-7"/>
                        <g id="Group_11767">
                            <g id="Group_11766">
                                <g id="Group_11765">
                                    <path id="Path_208991" d="M226.035 210.969a8.972 8.972 0 0 1 1.475.047 10.122 10.122 0 0 1 1.454.294c.236.075.478.138.706.236l.347.137.338.155c.229.1.444.223.665.337s.429.251.637.387.409.284.6.444c.1.079.2.154.29.235l.277.25c.189.162.353.349.531.523s.332.369.479.57c.307.392.566.813.84 1.213a4.5 4.5 0 0 0 .955 1.091l-.011.015a4.293 4.293 0 0 1-1.022-1.048c-.291-.395-.559-.806-.873-1.18a9.877 9.877 0 0 0-2.167-1.959 10.488 10.488 0 0 0-2.633-1.269 10.1 10.1 0 0 0-2.887-.459z" class="cls-4"/>
                                </g>
                            </g>
                            <path id="Path_208992" d="M225.9 211a4.851 4.851 0 0 1 2.588 1.007 18.257 18.257 0 0 1 2.072 1.894 11.118 11.118 0 0 0 2.157 1.74 8.886 8.886 0 0 0 2.572 1.032v.018a7.229 7.229 0 0 1-2.662-.891 9.488 9.488 0 0 1-2.168-1.795 18.174 18.174 0 0 0-2.023-1.923 4.778 4.778 0 0 0-2.534-1.063z" class="cls-4"/>
                            <path id="Path_208993" d="M228.14 211.561a6.905 6.905 0 0 1 2.506 1.42 27.3 27.3 0 0 1 2.153 1.888c.35.326.708.645 1.081.946a10.8 10.8 0 0 0 1.18.825 8.862 8.862 0 0 0 1.347.747 4.579 4.579 0 0 0 1.736.313l-.348-.272a5.572 5.572 0 0 1-2.682-.877 10.722 10.722 0 0 1-1.169-.816c-.374-.294-.735-.607-1.089-.928a27.325 27.325 0 0 0-2.179-1.868 6.917 6.917 0 0 0-2.536-1.378z" class="cls-4"/>
                        </g>
                    </g>
                    <path id="Path_208994" d="M233.293 215.547a1.117 1.117 0 0 1 .565.213c.083.075.142.206.075.295a.267.267 0 0 1-.1.072 2.35 2.35 0 0 1-1.5.03 1.952 1.952 0 0 1-1.181-.648.33.33 0 0 1-.08-.212c.019-.269.818 0 .992.029z" class="cls-7"/>
                </g>
                <g id="Group_11797">
                    <g id="Group_11777">
                        <g id="Group_11774">
                            <path id="Path_208995" d="M251.294 221.35a1.343 1.343 0 0 0 .516-.8c.054-.59-.6-.975-1.177-1.116a7.405 7.405 0 0 0-4.24.309 12.971 12.971 0 0 0-3.7 2.18A12.182 12.182 0 0 1 241.25 223a9.414 9.414 0 0 1-1.419.63l-3.441 1.305c1.908-.723 3.837.071 5.793.027a14.25 14.25 0 0 0 6.133-1.553 13.549 13.549 0 0 0 2.978-2.059z" class="cls-8"/>
                            <g id="Group_11773">
                                <path id="Path_208996" d="M251.172 221.145a.973.973 0 0 0 .5-.631c.035-.376-.347-.648-.7-.79a3.818 3.818 0 0 0-3.935.533 1.93 1.93 0 0 0-.423.516c-.3.556-.232 1.307-.69 1.738-.191.18-1.091.548-.811.93.219.3 1.161 0 1.446-.059a11.029 11.029 0 0 0 3.078-1.251c.528-.303 1.038-.636 1.535-.986z" class="cls-9"/>
                                <g id="Group_11772">
                                    <g id="Group_11770">
                                        <path id="Path_208997" d="M249.126 220.382a.423.423 0 0 0 .217-.2.222.222 0 0 0-.068-.271.24.24 0 0 0-.1-.03.374.374 0 0 0-.334.157.348.348 0 0 0-.033.34c.059.095.236.043.318.004z" class="cls-10"/>
                                        <path id="Path_208998" d="M248.345 219.915a.254.254 0 0 0 .131-.121.121.121 0 0 0-.1-.181.222.222 0 0 0-.2.095.2.2 0 0 0-.02.2c.033.062.144.031.189.007z" class="cls-10"/>
                                    </g>
                                    <g id="Group_11771">
                                        <path id="Path_208999" d="M242.973 222.855a.425.425 0 0 0 .217-.2.222.222 0 0 0-.069-.271.237.237 0 0 0-.1-.031.377.377 0 0 0-.333.158.343.343 0 0 0-.033.339c.059.097.236.05.318.005z" class="cls-10"/>
                                        <path id="Path_209000" d="M242.24 223.2a.083.083 0 0 0 .043.031.04.04 0 0 0 .045-.022.041.041 0 0 0 0-.019.069.069 0 0 0-.039-.053.059.059 0 0 0-.06.007c-.014.015.002.044.011.056z" class="cls-10"/>
                                        <path id="Path_209001" d="M241.61 223.434a.082.082 0 0 0 .042-.038.042.042 0 0 0-.013-.051.036.036 0 0 0-.02-.006.068.068 0 0 0-.063.03.064.064 0 0 0-.007.064c.012.019.051.009.061.001z" class="cls-10"/>
                                        <path id="Path_209002" d="M242.226 222.752a.063.063 0 0 0 .034-.032.034.034 0 0 0-.011-.041.03.03 0 0 0-.016-.005.055.055 0 0 0-.057.077c.01.015.037.007.05.001z" class="cls-10"/>
                                        <path id="Path_209003" d="M243.3 221.928a.119.119 0 0 0 .061-.056.061.061 0 0 0-.019-.076.075.075 0 0 0-.029-.009.107.107 0 0 0-.094.044.1.1 0 0 0-.009.1c.017.023.066.008.09-.003z" class="cls-10"/>
                                    </g>
                                </g>
                                <path id="Path_209004" d="M239.824 224.22a11.37 11.37 0 0 0 1.941-.407 11.778 11.778 0 0 0 1.844-.714c.6-.289 1.183-.6 1.782-.889s1.212-.556 1.835-.793a21.706 21.706 0 0 1 3.856-1.033c.657-.108 1.318-.193 1.982-.238s1.328-.055 1.992-.039l-.023.281a21.872 21.872 0 0 0-3.934.086 22.3 22.3 0 0 0-3.832 1.054c-.621.233-1.231.495-1.83.779s-1.186.6-1.789.875a11.466 11.466 0 0 1-3.822 1.05z" class="cls-2"/>
                            </g>
                        </g>
                        <g id="Group_11776">
                            <g id="Group_11775">
                                <path id="Path_209005" d="M237.843 224.489l1.864-.082c.62-.028 1.24-.052 1.856-.106s1.229-.124 1.833-.236a8.269 8.269 0 0 0 1.75-.52 10.094 10.094 0 0 0 1.593-.9 16.493 16.493 0 0 1 1.6-.99 5.453 5.453 0 0 1 .884-.358 9.063 9.063 0 0 1 .923-.195 6.027 6.027 0 0 0 .9-.2 1.408 1.408 0 0 0 .743-.507l.015.01a1.448 1.448 0 0 1-.736.554 5.855 5.855 0 0 1-.9.238 9.083 9.083 0 0 0-.9.215 5.359 5.359 0 0 0-.851.371c-1.1.582-2.03 1.444-3.189 1.926a11.16 11.16 0 0 1-3.645.728c-1.241.076-2.486.062-3.729.07z" class="cls-4"/>
                            </g>
                        </g>
                        <path id="Path_209006" d="M237.762 224.487c.609-.165 1.219-.329 1.81-.538a8.73 8.73 0 0 0 1.7-.764c.534-.32 1.052-.673 1.576-1.027a18.515 18.515 0 0 1 1.628-.993 12.575 12.575 0 0 1 3.6-1.261 9.818 9.818 0 0 1 1.906-.136c.16 0 .317.013.475.026a4.252 4.252 0 0 1 .477.058 1.648 1.648 0 0 1 .849.426l-.011.014a1.612 1.612 0 0 0-.847-.378 7.614 7.614 0 0 0-.943-.043 9.69 9.69 0 0 0-1.877.178 12.76 12.76 0 0 0-3.541 1.279 18.331 18.331 0 0 0-1.622.97c-.525.347-1.047.7-1.6 1.011a12.7 12.7 0 0 1-3.578 1.2z" class="cls-4"/>
                    </g>
                    <g id="Group_11785">
                        <g id="Group_11782">
                            <path id="Path_209007" d="M246.354 218a.9.9 0 0 0 .585-.265c.246-.314.014-.773-.259-1.062a5 5 0 0 0-2.513-1.375 8.77 8.77 0 0 0-2.892-.118 8.32 8.32 0 0 1-1.211.085 6.448 6.448 0 0 1-1.034-.162l-2.425-.519c1.345.288 2.146 1.443 3.27 2.133a9.587 9.587 0 0 0 4.039 1.362 9.067 9.067 0 0 0 2.44-.079z" class="cls-8"/>
                            <g id="Group_11781">
                                <path id="Path_209008" d="M246.36 217.841a.656.656 0 0 0 .511-.176c.157-.2.04-.494-.1-.7a2.575 2.575 0 0 0-2.423-1.137 1.325 1.325 0 0 0-.428.138c-.372.205-.609.655-1.026.732-.174.032-.817-.089-.8.229.015.25.656.427.841.5a7.433 7.433 0 0 0 2.2.417c.405.015.815.014 1.225-.003z" class="cls-9"/>
                                <g id="Group_11780">
                                    <g id="Group_11778">
                                        <path id="Path_209009" d="M245.48 216.661a.282.282 0 0 0 .2-.035.148.148 0 0 0 .06-.178.15.15 0 0 0-.048-.055.25.25 0 0 0-.246-.033.234.234 0 0 0-.143.18c-.003.078.117.113.177.121z" class="cls-10"/>
                                        <path id="Path_209010" d="M245.209 216.111a.169.169 0 0 0 .118-.021.089.089 0 0 0 .036-.107.1.1 0 0 0-.029-.033.151.151 0 0 0-.148-.02.141.141 0 0 0-.085.108c-.001.047.071.068.108.073z" class="cls-10"/>
                                    </g>
                                    <g id="Group_11779">
                                        <path id="Path_209011" d="M241.092 215.812a.288.288 0 0 0 .2-.035.148.148 0 0 0 .06-.178.158.158 0 0 0-.047-.056.252.252 0 0 0-.247-.032.233.233 0 0 0-.143.18c-.002.078.117.109.177.121z" class="cls-10"/>
                                        <path id="Path_209012" d="M240.552 215.74a.046.046 0 0 0 .013.033.027.027 0 0 0 .033 0l.007-.011a.043.043 0 0 0 0-.044.039.039 0 0 0-.036-.018c-.016.007-.018.029-.017.04z" class="cls-10"/>
                                        <path id="Path_209013" d="M240.109 215.641a.048.048 0 0 0 .037-.006.029.029 0 0 0 .012-.034l-.009-.011a.05.05 0 0 0-.047-.006.045.045 0 0 0-.027.034c0 .015.025.022.034.023z" class="cls-10"/>
                                        <path id="Path_209014" d="M240.708 215.48a.045.045 0 0 0 .03 0 .024.024 0 0 0 .009-.028l-.007-.008a.038.038 0 0 0-.038-.006.038.038 0 0 0-.023.028c.001.007.021.013.029.014z" class="cls-10"/>
                                        <path id="Path_209015" d="M241.616 215.406a.08.08 0 0 0 .055-.009.042.042 0 0 0 .017-.05.034.034 0 0 0-.013-.016.071.071 0 0 0-.069-.009.064.064 0 0 0-.04.05c0 .022.034.028.05.034z" class="cls-10"/>
                                    </g>
                                </g>
                                <path id="Path_209016" d="M238.811 215.433a7.633 7.633 0 0 0 1.248.479 8.042 8.042 0 0 0 1.3.27c.442.054.887.095 1.333.147s.889.129 1.329.222a14.638 14.638 0 0 1 2.56.825c.412.179.817.373 1.209.589s.772.455 1.143.707l-.117.151a14.626 14.626 0 0 0-2.258-1.39 14.963 14.963 0 0 0-2.554-.8c-.437-.1-.878-.17-1.322-.228s-.889-.1-1.332-.159a7.719 7.719 0 0 1-2.548-.8z" class="cls-2"/>
                            </g>
                        </g>
                        <g id="Group_11784">
                            <g id="Group_11783">
                                <path id="Path_209017" d="M237.593 214.859c.371.2.731.412 1.1.614s.725.416 1.1.607.742.371 1.123.526a5.549 5.549 0 0 0 1.171.339 7.144 7.144 0 0 0 1.222.072 10.573 10.573 0 0 1 1.271.029 3.727 3.727 0 0 1 .637.129 6.083 6.083 0 0 1 .595.236 4.362 4.362 0 0 0 .574.227.99.99 0 0 0 .6 0l.008.017a.983.983 0 0 1-.622.045 3.916 3.916 0 0 1-.6-.195 6.083 6.083 0 0 0-.591-.208 3.566 3.566 0 0 0-.616-.1c-.833-.071-1.677.077-2.511-.074a7.571 7.571 0 0 1-2.33-.922c-.731-.412-1.43-.875-2.136-1.326z" class="cls-4"/>
                            </g>
                        </g>
                        <path id="Path_209018" d="M237.547 214.828c.411.112.816.244 1.228.333a5.892 5.892 0 0 0 1.238.175c.831.021 1.692-.06 2.555.016a8.4 8.4 0 0 1 2.51.615 6.7 6.7 0 0 1 1.129.635 4.456 4.456 0 0 1 .505.4 1.059 1.059 0 0 1 .314.565l-.017.006a1.085 1.085 0 0 0-.341-.522 5.219 5.219 0 0 0-.518-.368 6.582 6.582 0 0 0-1.127-.585 8.614 8.614 0 0 0-2.471-.568 12.277 12.277 0 0 0-1.272-.045c-.425 0-.851.015-1.276-.013a8.544 8.544 0 0 1-2.463-.632z" class="cls-4"/>
                    </g>
                    <g id="Group_11787">
                        <path id="Path_209019" d="M248.253 215.685c-.662-1.229-.948-2.811-2.163-3.5a5.669 5.669 0 0 1 6.132 3.032c.316.626 1.031 2.3.532 2.94-1.141 1.451-4.014-1.567-4.501-2.472z" class="cls-1"/>
                        <path id="Path_209020" d="M250.741 217.865a1.077 1.077 0 0 1-.4-.359.458.458 0 0 1 .01-.511c.074-.09.447-.1.548-.159.731-.431.114-2.662.713-2.174a3.056 3.056 0 0 1 .974 2.55c-.139 1.355-1.005 1.153-1.845.653z" class="cls-11"/>
                        <path id="Path_209021" d="M247.674 213.828a4.686 4.686 0 0 0-1.151-1.506 5.328 5.328 0 0 1 2.212.274c.424.147.882.415.947.859a.316.316 0 0 1-.042.238.779.779 0 0 1-.164.128c-.268.207-.2.637-.379.923a.61.61 0 0 1-.819.179c-.309-.223-.446-.766-.604-1.095z" class="cls-3"/>
                        <path id="Path_209022" d="M254.453 220a6.961 6.961 0 0 1-2.308-1.775 24.44 24.44 0 0 1-1.745-2.325 15.115 15.115 0 0 0-1.822-2.242 5.873 5.873 0 0 0-2.447-1.489 5.894 5.894 0 0 1 2.479 1.456 15.062 15.062 0 0 1 1.865 2.222 24.484 24.484 0 0 0 1.775 2.28 6.775 6.775 0 0 0 2.28 1.7z" class="cls-4"/>
                        <g id="Group_11786">
                            <path id="Path_209023" d="M251.189 214.714a.026.026 0 0 1-.035-.013.028.028 0 0 1 .017-.035.027.027 0 0 1 .033.018.026.026 0 0 1-.018.033" class="cls-5"/>
                            <path id="Path_209024" d="M251.133 215.108a.026.026 0 0 1-.025-.046h.006a.026.026 0 1 1 .01.051" class="cls-5"/>
                            <path id="Path_209025" d="M251.1 214.433a.028.028 0 0 1-.036-.013.027.027 0 0 1 .016-.035.027.027 0 0 1 .033.018.028.028 0 0 1-.018.034" class="cls-5"/>
                            <path id="Path_209026" d="M251.284 214.226a.069.069 0 0 1-.089-.038.067.067 0 0 1 .038-.088.07.07 0 0 1 .041.134h-.011" class="cls-5"/>
                            <path id="Path_209027" d="M250.609 214.1a.027.027 0 0 1-.036-.011.026.026 0 0 1 .012-.035.026.026 0 0 1 .033.018.025.025 0 0 1-.018.033" class="cls-5"/>
                            <path id="Path_209028" d="M250.983 214.283a.028.028 0 0 1-.036-.013.028.028 0 0 1 .017-.035.029.029 0 0 1 .034.02.029.029 0 0 1-.023.032" class="cls-5"/>
                            <path id="Path_209029" d="M250.874 214.529a.076.076 0 0 1-.1.047.077.077 0 0 1-.048-.1l.007-.014a.08.08 0 0 1 .111-.025.082.082 0 0 1 .018.114" class="cls-5"/>
                            <path id="Path_209030" d="M251.136 215.5a.079.079 0 0 1-.1.045.08.08 0 0 1-.034-.108.078.078 0 0 1 .108-.028.079.079 0 0 1 .028.107l-.007.009" class="cls-5"/>
                            <path id="Path_209031" d="M251.5 214.613a.05.05 0 0 1-.065.029.048.048 0 1 1 .042-.087h.007a.052.052 0 0 1 .011.071" class="cls-5"/>
                            <path id="Path_209032" d="M250.869 213.975a.01.01 0 0 1 .013-.006.009.009 0 0 1 .006.012.01.01 0 0 1-.014 0 .009.009 0 0 1 0-.013" class="cls-5"/>
                        </g>
                    </g>
                    <g id="Group_11788">
                        <path id="Path_215037" d="M258.33 221.95l-.18.11a23.9 23.9 0 0 0-3.11-1.76c-.15-.07-.29-.13-.44-.2a15.482 15.482 0 0 0-4.64-1.26c-.37-.03-.74-.05-1.11-.05a.11.11 0 0 0-.08 0c-.97-.02-1.94.05-2.9.12-.53.04-1.08.07-1.62.1a32.588 32.588 0 0 1-3.28-.05v.01a.035.035 0 0 1-.02-.01c-.6-.03-1.2-.06-1.8-.13h-.01c-.26-.03-.53-.07-.8-.11a29.159 29.159 0 0 1-3.07-.59.06.06 0 0 1-.04-.01.355.355 0 0 1-.1-.02.937.937 0 0 1-.16-.04c-.2-.05-.39-.1-.58-.15-.34-.09-.68-.19-1.01-.29l.05-.18c.56.17 1.13.33 1.7.47a.185.185 0 0 0 .07.02.06.06 0 0 0 .04.01.037.037 0 0 0 .03.01l.39.09c.02.01.04.01.06.02a30.756 30.756 0 0 0 3.14.54c.45.06.9.11 1.36.14.26.03.53.05.8.06a31.428 31.428 0 0 0 3.22.02c.54-.02 1.09-.06 1.62-.1.85-.06 1.74-.12 2.62-.12.12 0 .24 0 .37.01.38 0 .76.02 1.13.05a14.719 14.719 0 0 1 3.57.82q.5.18.96.39a5.381 5.381 0 0 1 .55.24 26.368 26.368 0 0 1 3.27 1.84z" class="cls-2"/>
                    </g>
                    <g id="Group_11796">
                        <g id="Group_11793">
                            <path id="Path_209034" d="M234.537 218.91a1.344 1.344 0 0 0 .7-.644c.2-.557-.338-1.1-.856-1.378a7.41 7.41 0 0 0-4.179-.775 12.969 12.969 0 0 0-4.133 1.172 12.042 12.042 0 0 1-1.669.68 9.356 9.356 0 0 1-1.532.25l-3.659.391c2.028-.217 3.693 1.041 5.6 1.493a14.235 14.235 0 0 0 6.326.051 13.473 13.473 0 0 0 3.402-1.24z" class="cls-8"/>
                            <g id="Group_11792">
                                <path id="Path_209035" d="M234.471 218.681a.977.977 0 0 0 .639-.485c.129-.356-.172-.715-.472-.941a3.82 3.82 0 0 0-3.942-.481 1.971 1.971 0 0 0-.541.392c-.429.462-.555 1.206-1.107 1.507-.23.125-1.194.253-1.02.693.136.346 1.122.3 1.414.31a11.083 11.083 0 0 0 3.294-.43c.588-.159 1.164-.352 1.735-.565z" class="cls-6"/>
                                <g id="Group_11791">
                                    <g id="Group_11789">
                                        <path id="Path_209036" d="M232.685 217.425a.423.423 0 0 0 .261-.141.22.22 0 0 0 0-.279.228.228 0 0 0-.093-.056.377.377 0 0 0-.362.068.345.345 0 0 0-.118.32c.038.11.227.105.312.088z" class="cls-12"/>
                                        <path id="Path_209037" d="M232.048 216.775a.254.254 0 0 0 .157-.084.134.134 0 0 0 0-.168.141.141 0 0 0-.056-.034.225.225 0 0 0-.218.041.208.208 0 0 0-.07.192c.022.067.133.064.187.053z" class="cls-12"/>
                                    </g>
                                    <g id="Group_11790">
                                        <path id="Path_209038" d="M226.106 218.259a.426.426 0 0 0 .261-.141.223.223 0 0 0 0-.279.252.252 0 0 0-.093-.056.376.376 0 0 0-.363.069.342.342 0 0 0-.118.319c.039.11.224.105.313.088z" class="cls-12"/>
                                        <path id="Path_209039" d="M225.31 218.408a.074.074 0 0 0 .034.04.037.037 0 0 0 .048-.01.028.028 0 0 0 .006-.018.068.068 0 0 0-.024-.061.062.062 0 0 0-.06-.009c-.014.011-.014.043-.004.058z" class="cls-10"/>
                                        <path id="Path_209040" d="M224.641 218.474a.08.08 0 0 0 .05-.027.041.041 0 0 0 0-.053.04.04 0 0 0-.018-.01.068.068 0 0 0-.068.012.065.065 0 0 0-.023.061c.007.021.042.02.059.017z" class="cls-10"/>
                                        <path id="Path_209041" d="M225.41 217.969a.064.064 0 0 0 .04-.022.035.035 0 0 0 0-.043.028.028 0 0 0-.014-.008.056.056 0 0 0-.056.01.052.052 0 0 0-.018.05c.005.017.038.016.048.013z" class="cls-10"/>
                                        <path id="Path_209042" d="M226.657 217.445a.119.119 0 0 0 .073-.04.063.063 0 0 0 0-.078.076.076 0 0 0-.026-.016.107.107 0 0 0-.1.019.1.1 0 0 0-.033.09c.009.031.061.029.086.025z" class="cls-10"/>
                                    </g>
                                </g>
                                <path id="Path_209043" d="M222.714 218.781a11.318 11.318 0 0 0 1.981.1 11.913 11.913 0 0 0 1.965-.225c.649-.128 1.295-.277 1.948-.409s1.314-.23 1.977-.3a21.639 21.639 0 0 1 3.992-.023c.662.061 1.323.147 1.977.271s1.449.253 2.265.375l.327.261c-1.675-.165-3.254-.718-4.576-.816a22.351 22.351 0 0 0-3.974.048c-.66.068-1.316.168-1.968.291s-1.3.277-1.952.393a11.467 11.467 0 0 1-3.963.048z" class="cls-2"/>
                            </g>
                        </g>
                        <g id="Group_11795">
                            <g id="Group_11794">
                                <path id="Path_209044" d="M220.729 218.54l1.824.392c.608.13 1.213.264 1.823.369s1.221.191 1.833.235a8.317 8.317 0 0 0 1.825-.06 10.128 10.128 0 0 0 1.77-.47 16.261 16.261 0 0 1 1.795-.554 5.583 5.583 0 0 1 .946-.123 9.235 9.235 0 0 1 .941.046 6.168 6.168 0 0 0 .921.039 1.406 1.406 0 0 0 .848-.3l.012.013a1.445 1.445 0 0 1-.853.35 5.931 5.931 0 0 1-.933 0 9.019 9.019 0 0 0-.93-.022 5.362 5.362 0 0 0-.918.143c-1.208.285-2.33.883-3.573 1.056a11.181 11.181 0 0 1-3.71-.219c-1.221-.242-2.421-.57-3.625-.878z" class="cls-4"/>
                            </g>
                        </g>
                        <path id="Path_209045" d="M220.652 218.517c.631-.005 1.262-.009 1.887-.062a8.7 8.7 0 0 0 1.841-.308c.6-.174 1.188-.384 1.785-.594a18.446 18.446 0 0 1 1.827-.548 12.588 12.588 0 0 1 3.8-.308 9.929 9.929 0 0 1 1.878.35c.154.042.3.093.452.145a4.4 4.4 0 0 1 .446.177 1.647 1.647 0 0 1 .714.628l-.015.01a1.607 1.607 0 0 0-.723-.58 7.452 7.452 0 0 0-.9-.28 9.7 9.7 0 0 0-1.862-.3 12.749 12.749 0 0 0-3.749.34 18.089 18.089 0 0 0-1.814.527c-.6.2-1.192.416-1.8.574a12.716 12.716 0 0 1-3.764.251z" class="cls-4"/>
                    </g>
                </g>
                <g id="Group_11798">
                    <path id="Path_209046" d="M241.016 218.79l-.044.179a16.005 16.005 0 0 1-4.6-2.247c-.637-.4-1.295-.815-1.961-1.177a18.073 18.073 0 0 0-15.666-.628 35.956 35.956 0 0 0-4.645 2.651 34.651 34.651 0 0 1-4.848 2.743l-.073-.169a34.537 34.537 0 0 0 4.821-2.729 35.972 35.972 0 0 1 4.669-2.664 18.26 18.26 0 0 1 15.829.634c.671.365 1.332.781 1.971 1.183a15.843 15.843 0 0 0 4.547 2.224z" class="cls-4"/>
                </g>
                <g id="Group_11801">
                    <path id="Path_209047" d="M207.855 222.74c-1.345.377-2.951.309-3.889 1.343a5.67 5.67 0 0 1 4.3-5.318c.679-.172 2.473-.5 2.985.126 1.167 1.43-2.407 3.572-3.396 3.849z" class="cls-1"/>
                    <path id="Path_209048" d="M210.526 220.79a1.081 1.081 0 0 1-.438.314.459.459 0 0 1-.5-.122c-.071-.092 0-.458-.034-.569-.26-.808-2.573-.695-1.966-1.173a3.061 3.061 0 0 1 2.7-.391c1.297.431.912 1.231.238 1.941z" class="cls-2"/>
                    <path id="Path_209049" d="M205.916 222.9a4.678 4.678 0 0 0-1.723.793 5.345 5.345 0 0 1 .752-2.1c.237-.382.6-.769 1.046-.736a.317.317 0 0 1 .223.094.771.771 0 0 1 .089.188c.143.306.578.333.817.572a.608.608 0 0 1 0 .838 2.892 2.892 0 0 1-1.204.351z" class="cls-3"/>
                    <g id="Group_11799">
                        <path id="Path_209050" d="M213.253 218.122c-.412.215-.823.434-1.22.673a6.687 6.687 0 0 0-.575.384c-.185.134-.352.3-.551.435a8.479 8.479 0 0 1-1.266.622l-1.293.536a13.889 13.889 0 0 0-2.484 1.265 5.8 5.8 0 0 0-1.906 2.006 5.837 5.837 0 0 1 1.881-2.043 13.839 13.839 0 0 1 2.474-1.31l1.284-.556a8.352 8.352 0 0 0 1.232-.631c.184-.13.35-.3.539-.441a6.994 6.994 0 0 1 .581-.4c.4-.25.807-.477 1.218-.7z" class="cls-2"/>
                    </g>
                    <g id="Group_11800">
                        <path id="Path_209051" d="M207.55 219.662a.026.026 0 1 1-.05.013v-.005a.027.027 0 0 1 .027-.028.028.028 0 0 1 .026.029" class="cls-5"/>
                        <path id="Path_209052" d="M207.922 219.8a.028.028 0 0 1-.021.033.026.026 0 0 1-.03-.023.025.025 0 0 1 .023-.029.029.029 0 0 1 .027.029" class="cls-5"/>
                        <path id="Path_209053" d="M207.255 219.692a.027.027 0 0 1-.02.032.027.027 0 1 1 0-.053.028.028 0 0 1 .028.025" class="cls-5"/>
                        <path id="Path_209054" d="M207.1 219.463a.068.068 0 0 1-.135.022.07.07 0 1 1 .14 0" class="cls-5"/>
                        <path id="Path_209055" d="M206.819 220.093a.027.027 0 0 1-.021.032.026.026 0 0 1-.03-.022.027.027 0 0 1 .023-.03.029.029 0 0 1 .027.029" class="cls-5"/>
                        <path id="Path_209056" d="M207.084 219.768a.028.028 0 0 1-.02.033.027.027 0 0 1-.03-.023.027.027 0 0 1 .023-.029.029.029 0 0 1 .027.029" class="cls-5"/>
                        <path id="Path_209057" d="M207.3 219.929a.077.077 0 1 1-.081.13l-.011-.009a.08.08 0 0 1 0-.114.082.082 0 0 1 .114.008" class="cls-5"/>
                        <path id="Path_209058" d="M208.309 219.887a.08.08 0 0 1 .022.111.08.08 0 0 1-.113.009.078.078 0 1 1 .114-.106" class="cls-5"/>
                        <path id="Path_209059" d="M207.521 219.333a.05.05 0 0 1 .013.07.048.048 0 0 1-.076-.06l.005-.006a.051.051 0 0 1 .071 0" class="cls-5"/>
                        <path id="Path_209060" d="M206.759 219.812a.011.011 0 1 0 .01-.02.011.011 0 0 0-.015 0 .012.012 0 0 0 0 .014" class="cls-5"/>
                    </g>
                </g>
            </g>
            <g id="Group_11803">
                <path id="Path_209061" d="M219.186 211.609c.168-.09.134-.365-.019-.477a.75.75 0 0 0-.549-.078.853.853 0 0 0-.739.446.606.606 0 0 0 .078.512 1.367 1.367 0 0 0 .381.373.886.886 0 0 0 .307.157.361.361 0 0 0 .327-.07c.22-.208.013-.662.258-.84z" class="cls-13"/>
                <path id="Path_209062" d="M220.2 211.084a.731.731 0 0 0-.189.631 3.018 3.018 0 0 0 .127.944 1.011 1.011 0 0 0 .186.329.711.711 0 0 0 .662.231.62.62 0 0 0 .481-.495c.073-.5.854-.841.407-1.44a1.533 1.533 0 0 0-1.674-.2z" class="cls-13"/>
                <path id="Path_209063" d="M222.477 210.584a.986.986 0 0 0 .166.834.618.618 0 0 0 .789.145c.179-.124.263-.352.44-.479 1.559-1.113-1.029-2.232-1.395-.5z" class="cls-14"/>
                <path id="Path_209064" d="M223.122 211.177a.621.621 0 0 0-.547.363.851.851 0 0 0-.027.212l-.024.673a.6.6 0 0 0 .021.226c.075.2.333.257.549.274a1.35 1.35 0 0 0 .923-.161c.941-.704.003-1.692-.895-1.587z" class="cls-15"/>
                <path id="Path_209065" d="M220.085 212.222a.329.329 0 0 0-.289.192.419.419 0 0 0-.014.112l-.013.356a.32.32 0 0 0 .011.119c.04.107.176.136.291.145a.709.709 0 0 0 .487-.085c.498-.372.002-.895-.473-.839z" class="cls-15"/>
                <path id="Path_209066" d="M224.192 214.3a1.308 1.308 0 0 0-.442.731.936.936 0 0 0-.07.456c.068.361.523.5.889.462a1.4 1.4 0 0 0 .793-.334.937.937 0 0 0 .316-.781c-.068-.576-1.058-.809-1.486-.534z" class="cls-16"/>
                <path id="Path_209067" d="M226.585 215.84a.986.986 0 1 0 1.7-.995c-.161-.3-.431-.645-.8-.5-.188.076-.412.5-.563.647-.257.258-.578.415-.337.848z" class="cls-15"/>
            </g>
        </g>
        <g id="Group_11804-2">
            <g id="Group_11802-2">
                <g id="Group_11759-2">
                    <path id="Path_208965-2" d="M315.133 215.151c-.054-.807 1.483-1.791 2.1-2.129a5.67 5.67 0 0 1 6.775.953c-1.391-.117-2.52 1.029-3.76 1.671-.916.472-4.99 1.345-5.115-.495z" class="cls-1"/>
                    <path id="Path_208966-2" d="M315.807 214.465a3.058 3.058 0 0 1 2.242-1.558c.77-.065-1 1.43-.637 2.2.05.1.352.323.363.44a.455.455 0 0 1-.28.427 1.082 1.082 0 0 1-.534.07c-.976-.062-1.805-.383-1.154-1.579z" class="cls-2"/>
                    <path id="Path_208967-2" d="M320.653 215a.609.609 0 0 1-.574-.609c.011-.339.311-.655.207-.976a.812.812 0 0 1-.064-.2.316.316 0 0 1 .1-.22 1.265 1.265 0 0 1 1.266-.176 5.336 5.336 0 0 1 1.982 1.021 4.691 4.691 0 0 0-1.8.6c-.316.18-.735.55-1.117.56z" class="cls-3"/>
                    <path id="Path_208968-2" d="M312.529 215.374a8.413 8.413 0 0 0 2.9.03 8.3 8.3 0 0 0 1.416-.357c.465-.153.926-.323 1.388-.488a15.771 15.771 0 0 1 2.834-.808 5.922 5.922 0 0 1 2.914.189 5.878 5.878 0 0 0-2.906-.142 15.643 15.643 0 0 0-2.809.849c-.46.172-.918.349-1.383.51a8.341 8.341 0 0 1-1.43.384 8.6 8.6 0 0 1-2.96.014z" class="cls-4"/>
                    <g id="Group_11758-2">
                        <path id="Path_208969-2" d="M318.371 213.2a.028.028 0 0 1 0-.038.027.027 0 0 1 .038 0 .026.026 0 1 1-.046.024" class="cls-5"/>
                        <path id="Path_208970-2" d="M318.2 213.552a.027.027 0 0 1 0-.039.026.026 0 0 1 .036.01.025.025 0 0 1-.01.035.026.026 0 0 1-.035-.009" class="cls-5"/>
                        <path id="Path_208971-2" d="M318.607 213.015a.028.028 0 0 1 0-.038.026.026 0 0 1 .036.007.025.025 0 0 1-.006.036.028.028 0 0 1-.037-.01" class="cls-5"/>
                        <path id="Path_208972-2" d="M318.575 212.752a.074.074 0 0 1 0-.1l.01-.008a.069.069 0 1 1 .077.114.07.07 0 0 1-.1-.025" class="cls-5"/>
                        <path id="Path_208973-2" d="M319.2 213.011a.029.029 0 0 1 0-.039.028.028 0 0 1 .037.006.027.027 0 0 1-.007.037.026.026 0 0 1-.03-.015" class="cls-5"/>
                        <path id="Path_208974-2" d="M318.785 212.955a.027.027 0 1 1 .041-.034v.005a.026.026 0 0 1-.012.035.026.026 0 0 1-.035-.011" class="cls-5"/>
                        <path id="Path_208975-2" d="M318.726 213.237v-.01a.078.078 0 1 1 .156.01.08.08 0 0 1-.089.07.079.079 0 0 1-.059-.1" class="cls-5"/>
                        <path id="Path_208976-2" d="M317.96 213.9a.078.078 0 1 1 .156 0v.015a.076.076 0 1 1-.147-.04" class="cls-5"/>
                        <path id="Path_208977-2" d="M318.16 212.943v-.007a.049.049 0 0 1 .053-.045.048.048 0 0 1 .045.052v.01a.047.047 0 0 1-.059.033.048.048 0 0 1-.034-.059" class="cls-5"/>
                        <path id="Path_208978-2" d="M319.049 212.755a.01.01 0 1 1-.009-.011.01.01 0 0 1 .008.012" class="cls-5"/>
                    </g>
                </g>
                <g id="Group_11764-2">
                    <g id="Group_11763-2">
                        <path id="Path_208979-2" d="M312.293 221.4a10.589 10.589 0 0 0 3.576.832 6.715 6.715 0 0 1-2.723-2.989 10.19 10.19 0 0 0-1.961-3.325 6.426 6.426 0 0 0-3.853-1.445 30.5 30.5 0 0 0 .982 3.49 6.805 6.805 0 0 0 3.979 3.437z" class="cls-1"/>
                        <path id="Path_208980-2" d="M308.954 218.929c.233.24.445.083.642-.121.306-.317.366-.265.8-.265a.5.5 0 0 0 .432-.287.687.687 0 0 0 .012-.532.528.528 0 0 1-.055-.2c.005-.221.307-.277.472-.424a.536.536 0 0 0 .147-.49 1.046 1.046 0 0 0-.24-.472 3.08 3.08 0 0 0-.9-.71 5.9 5.9 0 0 0-2.1-.689.661.661 0 0 0-.3.01.486.486 0 0 0-.276.5 1.625 1.625 0 0 0 .2.574 7.8 7.8 0 0 1 .446 1.173 4.92 4.92 0 0 0 .72 1.933z" class="cls-6"/>
                        <path id="Path_208981-2" d="M314.409 221.535c-.075-.255-.365-.416-.541-.6-.51-.539-.526-1.435-1.086-1.922a.31.31 0 0 0-.261-.1c-.114.026-.17.155-.188.271-.049.324.076.653.049.98-.019.233-.11.486.01.687a.679.679 0 0 0 .336.246 5.06 5.06 0 0 0 1.681.438z" class="cls-6"/>
                        <path id="Path_208982-2" d="M309.8 218.361a.724.724 0 0 0-.024-.582.945.945 0 0 0-.416-.416.336.336 0 0 0-.333-.025.391.391 0 0 0-.118.157 1.3 1.3 0 0 0-.09.206.7.7 0 0 0 .065.55c.183.306.734.555.916.11z" class="cls-6"/>
                        <g id="Group_11762-2">
                            <g id="Group_11761-2">
                                <g id="Group_11760-2">
                                    <path id="Path_208983-2" d="M315.579 222.18a10.138 10.138 0 0 1-2.746-1.023 10.506 10.506 0 0 1-2.337-1.77 9.93 9.93 0 0 1-1.728-2.368c-.232-.433-.411-.89-.614-1.334a4.314 4.314 0 0 0-.784-1.23l.013-.013a4.108 4.108 0 0 1 .859 1.2c.22.442.411.891.652 1.309a10.206 10.206 0 0 0 1.733 2.3 10.775 10.775 0 0 0 2.276 1.773 10.017 10.017 0 0 0 1.3.646 11.4 11.4 0 0 0 1.38.486z" class="cls-4"/>
                                </g>
                            </g>
                            <path id="Path_208984-2" d="M315.72 222.176a4.833 4.833 0 0 1-2.333-1.506 18.33 18.33 0 0 1-1.65-2.271 11.054 11.054 0 0 0-1.764-2.137 8.849 8.849 0 0 0-2.311-1.528l.006-.017a7.235 7.235 0 0 1 2.429 1.407 9.545 9.545 0 0 1 1.764 2.194 18.034 18.034 0 0 0 1.6 2.29 4.781 4.781 0 0 0 2.269 1.55z" class="cls-4"/>
                            <path id="Path_208985-2" d="M311.428 219.318a27.467 27.467 0 0 1-1.758-2.268c-.282-.385-.573-.764-.881-1.127a10.672 10.672 0 0 0-.982-1.035 5.572 5.572 0 0 0-2.45-1.4l.087-.23a4.1 4.1 0 0 1 1.263.549 8.891 8.891 0 0 1 1.169 1 10.742 10.742 0 0 1 .99 1.045c.306.37.592.755.87 1.145a27.28 27.28 0 0 0 1.73 2.281 6.9 6.9 0 0 0 2.169 1.894 6.912 6.912 0 0 1-2.207-1.854z" class="cls-4"/>
                        </g>
                    </g>
                    <path id="Path_208986-2" d="M310.555 216.7c.164.065.893.487.966.228a.34.34 0 0 0-.035-.224 1.949 1.949 0 0 0-1.028-.872 2.354 2.354 0 0 0-1.479-.273.262.262 0 0 0-.116.05c-.084.074-.052.214.014.3a1.113 1.113 0 0 0 .511.323z" class="cls-6"/>
                </g>
                <g id="Group_11769-2">
                    <g id="Group_11768-2">
                        <path id="Path_208987-2" d="M300.506 211.07a10.558 10.558 0 0 1 3.669-.1 6.715 6.715 0 0 0-3.267 2.38 10.194 10.194 0 0 1-2.589 2.864 6.422 6.422 0 0 1-4.065.642 30.424 30.424 0 0 1 1.663-3.222 6.807 6.807 0 0 1 4.589-2.564z" class="cls-1"/>
                        <path id="Path_208988-2" d="M296.737 212.824c.276-.189.452.008.605.248.236.372.3.333.726.419a.5.5 0 0 1 .366.367.686.686 0 0 1-.1.524.535.535 0 0 0-.094.184c-.039.217.245.333.377.511a.534.534 0 0 1 .046.509 1.05 1.05 0 0 1-.33.414 3.059 3.059 0 0 1-1.029.513 5.91 5.91 0 0 1-2.191.255.675.675 0 0 1-.3-.071.485.485 0 0 1-.17-.543 1.618 1.618 0 0 1 .309-.523 7.742 7.742 0 0 0 .672-1.06 4.926 4.926 0 0 1 1.113-1.747z" class="cls-6"/>
                        <path id="Path_208989-2" d="M302.6 211.366c-.125.235-.441.334-.65.481-.609.426-.8 1.3-1.451 1.665a.31.31 0 0 1-.275.045.3.3 0 0 1-.13-.3c.018-.328.206-.625.245-.951.029-.232-.01-.5.148-.671a.673.673 0 0 1 .378-.173 5.064 5.064 0 0 1 1.735-.096z" class="cls-6"/>
                        <path id="Path_208990-2" d="M297.456 213.551a.72.72 0 0 1-.14.565.932.932 0 0 1-.491.324.334.334 0 0 1-.331-.042.39.39 0 0 1-.083-.178 1.355 1.355 0 0 1-.048-.219.7.7 0 0 1 .175-.527c.235-.264.825-.396.918.077z" class="cls-7"/>
                        <g id="Group_11767-2">
                            <g id="Group_11766-2">
                                <g id="Group_11765-2">
                                    <path id="Path_208991-2" d="M303.88 210.988a10.09 10.09 0 0 0-2.886.459 10.479 10.479 0 0 0-2.634 1.269 9.877 9.877 0 0 0-2.167 1.959c-.314.374-.582.785-.873 1.18a4.293 4.293 0 0 1-1.02 1.045l-.011-.015a4.508 4.508 0 0 0 .956-1.091c.273-.4.532-.821.839-1.213.147-.2.315-.384.479-.57s.342-.361.531-.523l.277-.25c.094-.081.193-.156.29-.235.191-.16.4-.3.6-.444s.422-.263.637-.387.436-.239.665-.337l.339-.155.346-.137c.228-.1.47-.161.706-.236a10.151 10.151 0 0 1 1.454-.294 8.976 8.976 0 0 1 1.475-.047z" class="cls-4"/>
                                </g>
                            </g>
                            <path id="Path_208992-2" d="M304.019 211.02a4.778 4.778 0 0 0-2.534 1.063 18.175 18.175 0 0 0-2.023 1.923 9.488 9.488 0 0 1-2.168 1.795 7.231 7.231 0 0 1-2.661.891v-.018a8.886 8.886 0 0 0 2.572-1.032 11.119 11.119 0 0 0 2.157-1.74 18.255 18.255 0 0 1 2.072-1.894 4.851 4.851 0 0 1 2.584-1.008z" class="cls-4"/>
                            <path id="Path_208993-2" d="M301.775 211.561a6.917 6.917 0 0 0-2.536 1.378 27.322 27.322 0 0 0-2.179 1.868c-.354.321-.715.634-1.089.928a10.722 10.722 0 0 1-1.169.816 5.572 5.572 0 0 1-2.681.877l-.349.272a4.575 4.575 0 0 0 1.736-.313 8.814 8.814 0 0 0 1.347-.747 10.8 10.8 0 0 0 1.18-.825c.373-.3.731-.62 1.081-.946a27.3 27.3 0 0 1 2.153-1.888 6.905 6.905 0 0 1 2.506-1.42z" class="cls-4"/>
                        </g>
                    </g>
                    <path id="Path_208994-2" d="M297.859 215.326c.174-.031.973-.3.992-.029a.33.33 0 0 1-.08.212 1.949 1.949 0 0 1-1.181.648 2.347 2.347 0 0 1-1.5-.03.253.253 0 0 1-.1-.072c-.068-.089-.009-.22.074-.295a1.117 1.117 0 0 1 .565-.213z" class="cls-7"/>
                </g>
                <g id="Group_11797-2">
                    <g id="Group_11777-2">
                        <g id="Group_11774-2">
                            <path id="Path_208995-2" d="M281.6 223.412a14.246 14.246 0 0 0 6.132 1.553c1.956.044 3.885-.75 5.793-.027l-3.441-1.305a9.359 9.359 0 0 1-1.418-.63 12.2 12.2 0 0 1-1.443-1.081 12.971 12.971 0 0 0-3.7-2.18 7.405 7.405 0 0 0-4.24-.309c-.572.141-1.231.526-1.177 1.116a1.343 1.343 0 0 0 .516.8 13.531 13.531 0 0 0 2.978 2.063z" class="cls-8"/>
                            <g id="Group_11773-2">
                                <path id="Path_208996-2" d="M280.278 222.131a11.029 11.029 0 0 0 3.078 1.251c.285.063 1.227.358 1.446.059.28-.382-.62-.75-.811-.93-.458-.431-.391-1.182-.689-1.738a1.953 1.953 0 0 0-.424-.516 3.817 3.817 0 0 0-3.935-.533c-.348.142-.73.414-.7.79a.973.973 0 0 0 .5.631c.497.35 1.007.683 1.535.986z" class="cls-9"/>
                                <g id="Group_11772-2">
                                    <g id="Group_11770-2">
                                        <path id="Path_208997-2" d="M281.111 220.376a.348.348 0 0 0-.033-.34.374.374 0 0 0-.333-.157.233.233 0 0 0-.1.03.221.221 0 0 0-.069.271.427.427 0 0 0 .217.2c.078.041.255.093.318-.004z" class="cls-10"/>
                                        <path id="Path_208998-2" d="M281.763 219.912a.207.207 0 0 0-.019-.2.225.225 0 0 0-.2-.095.135.135 0 0 0-.062.018.132.132 0 0 0-.041.163.248.248 0 0 0 .13.121c.048.02.155.051.192-.007z" class="cls-10"/>
                                    </g>
                                    <g id="Group_11771-2">
                                        <path id="Path_208999-2" d="M287.265 222.849a.346.346 0 0 0-.034-.339.376.376 0 0 0-.333-.158.237.237 0 0 0-.1.031.222.222 0 0 0-.069.271.424.424 0 0 0 .218.2c.077.046.253.093.318-.005z" class="cls-10"/>
                                        <path id="Path_209000-2" d="M287.685 223.145a.057.057 0 0 0-.059-.007.068.068 0 0 0-.04.053.041.041 0 0 0 0 .019.038.038 0 0 0 .044.022.079.079 0 0 0 .043-.031c.011-.013.027-.042.012-.056z" class="cls-10"/>
                                        <path id="Path_209001-2" d="M288.366 223.433a.066.066 0 0 0-.006-.064.071.071 0 0 0-.064-.03.039.039 0 0 0-.02.006.043.043 0 0 0-.013.051.082.082 0 0 0 .042.038c.015.008.049.018.061-.001z" class="cls-10"/>
                                        <path id="Path_209002-2" d="M287.739 222.751a.055.055 0 0 0-.057-.077.033.033 0 0 0-.016.005.033.033 0 0 0-.01.041.064.064 0 0 0 .033.032c.011.006.04.014.05-.001z" class="cls-10"/>
                                        <path id="Path_209003-2" d="M286.706 221.927a.1.1 0 0 0-.009-.1.107.107 0 0 0-.094-.044.075.075 0 0 0-.029.009.062.062 0 0 0-.019.076.119.119 0 0 0 .061.056c.023.015.072.03.09.003z" class="cls-10"/>
                                    </g>
                                </g>
                                <path id="Path_209004-2" d="M290.089 224.232a11.466 11.466 0 0 1-3.822-1.05c-.6-.278-1.19-.588-1.788-.875s-1.21-.546-1.831-.779a22.293 22.293 0 0 0-3.831-1.054 21.876 21.876 0 0 0-3.934-.086l-.024-.281q1-.024 1.992.039c.664.045 1.325.13 1.982.238a21.706 21.706 0 0 1 3.856 1.033c.623.237 1.234.5 1.836.793s1.186.6 1.781.889a11.817 11.817 0 0 0 1.844.714 11.37 11.37 0 0 0 1.941.407z" class="cls-2"/>
                            </g>
                        </g>
                        <g id="Group_11776-2">
                            <g id="Group_11775-2">
                                <path id="Path_209005-2" d="M292.072 224.508c-1.243-.008-2.487.006-3.729-.07a11.16 11.16 0 0 1-3.645-.728c-1.158-.482-2.093-1.344-3.189-1.926a5.359 5.359 0 0 0-.851-.371 9.083 9.083 0 0 0-.9-.215 5.855 5.855 0 0 1-.9-.238 1.448 1.448 0 0 1-.736-.554l.015-.01a1.408 1.408 0 0 0 .743.507 6.027 6.027 0 0 0 .9.2 9.064 9.064 0 0 1 .923.195 5.453 5.453 0 0 1 .884.358 16.492 16.492 0 0 1 1.6.99 10.094 10.094 0 0 0 1.593.9 8.3 8.3 0 0 0 1.75.52c.6.112 1.217.181 1.833.236s1.236.078 1.857.106l1.863.082z" class="cls-4"/>
                            </g>
                        </g>
                        <path id="Path_209006-2" d="M292.148 224.506a12.7 12.7 0 0 1-3.578-1.2c-.552-.308-1.073-.664-1.6-1.011a18.187 18.187 0 0 0-1.622-.97 12.76 12.76 0 0 0-3.541-1.279 9.69 9.69 0 0 0-1.877-.178 7.613 7.613 0 0 0-.943.043 1.609 1.609 0 0 0-.846.378l-.012-.014a1.647 1.647 0 0 1 .85-.426 4.206 4.206 0 0 1 .476-.058c.158-.013.315-.025.475-.026a9.812 9.812 0 0 1 1.906.136 12.575 12.575 0 0 1 3.6 1.261 18.368 18.368 0 0 1 1.628.993c.524.354 1.042.707 1.576 1.027a8.729 8.729 0 0 0 1.7.764c.591.209 1.2.373 1.81.538z" class="cls-4"/>
                    </g>
                    <g id="Group_11785-2">
                        <g id="Group_11782-2">
                            <path id="Path_209007-2" d="M286 218.08a9.587 9.587 0 0 0 4.039-1.362c1.124-.69 1.925-1.845 3.27-2.133l-2.425.519a6.448 6.448 0 0 1-1.034.162 8.319 8.319 0 0 1-1.211-.085 8.77 8.77 0 0 0-2.892.118 5 5 0 0 0-2.513 1.375c-.272.289-.5.748-.258 1.062a.9.9 0 0 0 .584.265 9.067 9.067 0 0 0 2.44.079z" class="cls-8"/>
                            <g id="Group_11781-2">
                                <path id="Path_209008-2" d="M284.785 217.838a7.439 7.439 0 0 0 2.2-.417c.184-.069.825-.246.84-.5.019-.318-.625-.2-.8-.229-.417-.077-.654-.527-1.026-.732a1.325 1.325 0 0 0-.428-.138 2.576 2.576 0 0 0-2.423 1.137c-.145.208-.262.5-.1.7a.656.656 0 0 0 .511.176c.406.023.817.024 1.226.003z" class="cls-9"/>
                                <g id="Group_11780-2">
                                    <g id="Group_11778-2">
                                        <path id="Path_209009-2" d="M284.615 216.54a.234.234 0 0 0-.143-.18.25.25 0 0 0-.246.033.149.149 0 0 0-.048.055.148.148 0 0 0 .06.178.282.282 0 0 0 .2.035c.057-.008.177-.043.177-.121z" class="cls-10"/>
                                        <path id="Path_209010-2" d="M284.815 216.038a.144.144 0 0 0-.086-.108.151.151 0 0 0-.148.02.1.1 0 0 0-.029.033.089.089 0 0 0 .036.107.169.169 0 0 0 .118.021c.037-.005.108-.026.109-.073z" class="cls-10"/>
                                    </g>
                                    <g id="Group_11779-2">
                                        <path id="Path_209011-2" d="M289 215.691a.233.233 0 0 0-.143-.18.252.252 0 0 0-.247.032.169.169 0 0 0-.047.056.148.148 0 0 0 .06.178.288.288 0 0 0 .2.035c.06-.012.177-.043.177-.121z" class="cls-10"/>
                                        <path id="Path_209012-2" d="M289.349 215.7a.04.04 0 0 0-.036.018.043.043 0 0 0 0 .044l.008.011a.027.027 0 0 0 .033 0 .057.057 0 0 0 .013-.033c-.003-.011-.004-.033-.018-.04z" class="cls-10"/>
                                        <path id="Path_209013-2" d="M289.84 215.618a.043.043 0 0 0-.027-.034.048.048 0 0 0-.046.006l-.01.011a.029.029 0 0 0 .012.034.048.048 0 0 0 .037.006c.011-.001.034-.008.034-.023z" class="cls-10"/>
                                        <path id="Path_209014-2" d="M289.236 215.461a.038.038 0 0 0-.023-.028.038.038 0 0 0-.038.006l-.007.008a.024.024 0 0 0 .009.028.045.045 0 0 0 .03 0c.01.004.028-.002.029-.014z" class="cls-10"/>
                                        <path id="Path_209015-2" d="M288.349 215.372a.064.064 0 0 0-.04-.05.071.071 0 0 0-.069.009.039.039 0 0 0 0 .066.08.08 0 0 0 .055.009c.021-.006.054-.012.054-.034z" class="cls-10"/>
                                    </g>
                                </g>
                                <path id="Path_209016-2" d="M291.108 215.439a7.719 7.719 0 0 1-2.548.8c-.443.063-.889.1-1.332.159s-.885.133-1.321.228a14.945 14.945 0 0 0-2.555.8 14.627 14.627 0 0 0-2.258 1.39l-.117-.151q.557-.378 1.143-.707c.392-.216.8-.41 1.209-.589a14.637 14.637 0 0 1 2.56-.825c.44-.093.884-.165 1.329-.222s.891-.093 1.334-.147a8.052 8.052 0 0 0 1.3-.27 7.633 7.633 0 0 0 1.248-.479z" class="cls-2"/>
                            </g>
                        </g>
                        <g id="Group_11784-2">
                            <g id="Group_11783-2">
                                <path id="Path_209017-2" d="M292.331 214.874c-.706.451-1.4.914-2.136 1.326a7.571 7.571 0 0 1-2.33.922c-.834.151-1.678 0-2.511.074a3.566 3.566 0 0 0-.616.1 6.08 6.08 0 0 0-.591.208 3.917 3.917 0 0 1-.6.195.98.98 0 0 1-.621-.045l.007-.017a.99.99 0 0 0 .6 0 4.307 4.307 0 0 0 .574-.227 6.084 6.084 0 0 1 .6-.236 3.727 3.727 0 0 1 .637-.129 10.572 10.572 0 0 1 1.271-.029 7.138 7.138 0 0 0 1.222-.072 5.532 5.532 0 0 0 1.171-.339c.381-.155.753-.338 1.124-.526s.731-.4 1.1-.607.726-.417 1.1-.614z" class="cls-4"/>
                            </g>
                        </g>
                        <path id="Path_209018-2" d="M292.374 214.845a8.544 8.544 0 0 1-2.463.632c-.425.028-.851.017-1.276.013a12.248 12.248 0 0 0-1.271.045 8.6 8.6 0 0 0-2.471.568 6.554 6.554 0 0 0-1.128.585 5.215 5.215 0 0 0-.518.368 1.076 1.076 0 0 0-.34.522l-.018-.006a1.067 1.067 0 0 1 .315-.565 4.356 4.356 0 0 1 .5-.4 6.7 6.7 0 0 1 1.129-.635 8.4 8.4 0 0 1 2.51-.615c.863-.076 1.724 0 2.555-.016a5.883 5.883 0 0 0 1.238-.175c.412-.089.817-.221 1.228-.333z" class="cls-4"/>
                    </g>
                    <g id="Group_11787-2">
                        <path id="Path_209019-2" d="M277.162 218.158c-.5-.635.215-2.314.531-2.94a5.669 5.669 0 0 1 6.132-3.032c-1.214.688-1.5 2.27-2.163 3.5-.487.904-3.362 3.922-4.5 2.472z" class="cls-1"/>
                        <path id="Path_209020-2" d="M277.331 217.212a3.056 3.056 0 0 1 .974-2.55c.6-.488-.018 1.743.714 2.174.1.059.473.069.548.159a.457.457 0 0 1 .01.511 1.092 1.092 0 0 1-.4.359c-.843.5-1.709.702-1.846-.653z" class="cls-11"/>
                        <path id="Path_209021-2" d="M281.637 214.923a.61.61 0 0 1-.819-.179c-.181-.286-.111-.716-.378-.923a.761.761 0 0 1-.165-.128.316.316 0 0 1-.042-.238c.066-.444.523-.712.947-.859a5.328 5.328 0 0 1 2.212-.274 4.687 4.687 0 0 0-1.151 1.506c-.158.329-.295.872-.604 1.095z" class="cls-3"/>
                        <path id="Path_209022-2" d="M275.388 219.827a6.781 6.781 0 0 0 2.279-1.7 24.312 24.312 0 0 0 1.775-2.28 15.063 15.063 0 0 1 1.865-2.222 5.891 5.891 0 0 1 2.48-1.456 5.87 5.87 0 0 0-2.448 1.489 15.116 15.116 0 0 0-1.822 2.242 24.435 24.435 0 0 1-1.747 2.321 6.951 6.951 0 0 1-2.308 1.779z" class="cls-4"/>
                        <g id="Group_11786-2">
                            <path id="Path_209023-2" d="M278.734 214.718a.027.027 0 0 1 .015-.051.028.028 0 0 1 .017.035.026.026 0 0 1-.035.013" class="cls-5"/>
                            <path id="Path_209024-2" d="M278.791 215.111a.026.026 0 1 1 .01-.051h.006a.026.026 0 0 1-.025.046" class="cls-5"/>
                            <path id="Path_209025-2" d="M278.827 214.436a.028.028 0 0 1-.018-.034.027.027 0 0 1 .033-.018.027.027 0 0 1 .016.035.028.028 0 0 1-.036.013" class="cls-5"/>
                            <path id="Path_209026-2" d="M278.653 214.236h-.012a.071.071 0 0 1-.046-.088.069.069 0 0 1 .087-.046.068.068 0 1 1-.05.126" class="cls-5"/>
                            <path id="Path_209027-2" d="M279.314 214.1a.027.027 0 0 1-.018-.033.026.026 0 0 1 .033-.018h.005a.027.027 0 0 1 .011.035.027.027 0 0 1-.035.011" class="cls-5"/>
                            <path id="Path_209028-2" d="M278.94 214.286a.027.027 0 0 1-.022-.032.028.028 0 0 1 .033-.02.028.028 0 0 1 .017.035.028.028 0 0 1-.036.013" class="cls-5"/>
                            <path id="Path_209029-2" d="M279.051 214.554a.081.081 0 0 1 .017-.114.08.08 0 0 1 .111.025l.007.014a.077.077 0 0 1-.145.05" class="cls-5"/>
                            <path id="Path_209030-2" d="M278.789 215.528l-.006-.009a.078.078 0 0 1 .135-.079.08.08 0 0 1-.034.108.079.079 0 0 1-.1-.045" class="cls-5"/>
                            <path id="Path_209031-2" d="M278.417 214.629a.052.052 0 0 1 .011-.071h.008a.048.048 0 1 1 .041.087.05.05 0 0 1-.065-.029" class="cls-5"/>
                            <path id="Path_209032-2" d="M279.045 213.972a.009.009 0 0 1 0 .013.01.01 0 0 1-.014 0 .01.01 0 0 1 .006-.012.01.01 0 0 1 .013.006" class="cls-5"/>
                        </g>
                    </g>
                    <g id="Group_11788-2">
                        <path id="Path_215038" d="M271.585 221.95l.18.11a23.9 23.9 0 0 1 3.11-1.76c.15-.07.29-.13.44-.2a15.482 15.482 0 0 1 4.64-1.26c.37-.03.74-.05 1.11-.05a.11.11 0 0 1 .08 0c.97-.02 1.94.05 2.9.12.53.04 1.08.07 1.62.1a32.588 32.588 0 0 0 3.28-.05v.01a.035.035 0 0 0 .02-.01c.6-.03 1.2-.06 1.8-.13h.01c.26-.03.53-.07.8-.11a29.158 29.158 0 0 0 3.07-.59.06.06 0 0 0 .04-.01.356.356 0 0 0 .1-.02.938.938 0 0 0 .16-.04c.2-.05.39-.1.58-.15.34-.09.68-.19 1.01-.29l-.05-.18c-.56.17-1.13.33-1.7.47a.186.186 0 0 1-.07.02.06.06 0 0 1-.04.01.037.037 0 0 1-.03.01l-.39.09c-.02.01-.04.01-.06.02a30.757 30.757 0 0 1-3.14.54c-.45.06-.9.11-1.36.14-.26.03-.53.05-.8.06a31.428 31.428 0 0 1-3.22.02c-.54-.02-1.09-.06-1.62-.1-.85-.06-1.74-.12-2.62-.12-.12 0-.24 0-.37.01-.38 0-.76.02-1.13.05a14.72 14.72 0 0 0-3.57.82q-.495.18-.96.39a5.381 5.381 0 0 0-.55.24 26.371 26.371 0 0 0-3.27 1.84z" class="cls-2"/>
                    </g>
                    <g id="Group_11796-2">
                        <g id="Group_11793-2">
                            <path id="Path_209034-2" d="M298.782 220.15a14.235 14.235 0 0 0 6.326-.051c1.9-.452 3.568-1.71 5.6-1.493l-3.66-.391a9.326 9.326 0 0 1-1.531-.25 12.055 12.055 0 0 1-1.67-.68 12.962 12.962 0 0 0-4.133-1.172 7.41 7.41 0 0 0-4.179.775c-.518.282-1.058.821-.856 1.378a1.344 1.344 0 0 0 .7.644 13.5 13.5 0 0 0 3.403 1.24z" class="cls-8"/>
                            <g id="Group_11792-2">
                                <path id="Path_209035-2" d="M297.179 219.246a11.083 11.083 0 0 0 3.294.43c.292-.011 1.278.036 1.414-.31.174-.44-.789-.568-1.02-.693-.552-.3-.678-1.045-1.107-1.507a1.957 1.957 0 0 0-.541-.392 3.818 3.818 0 0 0-3.941.481c-.3.226-.6.585-.473.941a.977.977 0 0 0 .639.485c.57.213 1.147.406 1.735.565z" class="cls-6"/>
                                <g id="Group_11791-2">
                                    <g id="Group_11789-2">
                                        <path id="Path_209036-2" d="M297.54 217.337a.345.345 0 0 0-.118-.32.377.377 0 0 0-.362-.068.228.228 0 0 0-.093.056.221.221 0 0 0 0 .279.423.423 0 0 0 .261.141c.091.017.272.022.312-.088z" class="cls-12"/>
                                        <path id="Path_209037-2" d="M298.054 216.722a.211.211 0 0 0-.071-.192.224.224 0 0 0-.218-.041.141.141 0 0 0-.056.034.134.134 0 0 0 0 .168.257.257 0 0 0 .157.084c.055.011.166.014.188-.053z" class="cls-12"/>
                                    </g>
                                    <g id="Group_11790-2">
                                        <path id="Path_209038-2" d="M304.12 218.171a.342.342 0 0 0-.118-.319.376.376 0 0 0-.363-.069.252.252 0 0 0-.093.056.223.223 0 0 0 0 .279.426.426 0 0 0 .261.141c.093.017.276.022.313-.088z" class="cls-12"/>
                                        <path id="Path_209039-2" d="M304.6 218.35a.062.062 0 0 0-.06.009.068.068 0 0 0-.024.061.028.028 0 0 0 .006.018.038.038 0 0 0 .048.01.074.074 0 0 0 .034-.04c.008-.015.015-.047-.004-.058z" class="cls-10"/>
                                        <path id="Path_209040-2" d="M305.333 218.457a.067.067 0 0 0-.022-.061.069.069 0 0 0-.069-.012.04.04 0 0 0-.018.01.044.044 0 0 0 0 .053.083.083 0 0 0 .05.027c.017.003.052.004.059-.017z" class="cls-10"/>
                                        <path id="Path_209041-2" d="M304.554 217.956a.053.053 0 0 0-.019-.05.056.056 0 0 0-.056-.01.028.028 0 0 0-.014.008.035.035 0 0 0 0 .043.064.064 0 0 0 .04.022c.014.003.043.004.049-.013z" class="cls-10"/>
                                        <path id="Path_209042-2" d="M303.346 217.42a.1.1 0 0 0-.033-.09.107.107 0 0 0-.1-.019.087.087 0 0 0-.026.016.063.063 0 0 0 0 .078.119.119 0 0 0 .074.04c.023.004.074.006.085-.025z" class="cls-10"/>
                                    </g>
                                </g>
                                <path id="Path_209043-2" d="M307.2 218.793a11.468 11.468 0 0 1-3.963-.048c-.654-.116-1.3-.267-1.952-.393s-1.308-.223-1.968-.291a22.34 22.34 0 0 0-3.973-.048c-1.323.1-2.9.651-4.577.816l.327-.261c.816-.122 1.612-.247 2.265-.375s1.315-.21 1.977-.271a21.639 21.639 0 0 1 3.992.023c.663.071 1.323.175 1.977.3s1.3.281 1.948.409a11.912 11.912 0 0 0 1.965.225 11.313 11.313 0 0 0 1.981-.1z" class="cls-2"/>
                            </g>
                        </g>
                        <g id="Group_11795-2">
                            <g id="Group_11794-2">
                                <path id="Path_209044-2" d="M309.19 218.557c-1.2.308-2.4.636-3.624.878a11.189 11.189 0 0 1-3.711.219c-1.243-.173-2.365-.771-3.573-1.056a5.366 5.366 0 0 0-.917-.143 9.032 9.032 0 0 0-.931.022 5.931 5.931 0 0 1-.933 0 1.448 1.448 0 0 1-.853-.35l.013-.013a1.4 1.4 0 0 0 .847.3 6.167 6.167 0 0 0 .921-.039 9.25 9.25 0 0 1 .941-.046 5.57 5.57 0 0 1 .946.123 16.261 16.261 0 0 1 1.795.554 10.128 10.128 0 0 0 1.77.47 8.324 8.324 0 0 0 1.826.06c.612-.044 1.222-.133 1.832-.235s1.215-.239 1.823-.369l1.824-.392z" class="cls-4"/>
                            </g>
                        </g>
                        <path id="Path_209045-2" d="M309.264 218.536a12.716 12.716 0 0 1-3.764-.251c-.612-.158-1.207-.371-1.8-.574a18.088 18.088 0 0 0-1.814-.527 12.748 12.748 0 0 0-3.749-.34 9.709 9.709 0 0 0-1.862.3 7.509 7.509 0 0 0-.9.28 1.612 1.612 0 0 0-.723.58l-.015-.01a1.647 1.647 0 0 1 .714-.628 4.4 4.4 0 0 1 .446-.177c.149-.052.3-.1.453-.145a9.9 9.9 0 0 1 1.878-.35 12.591 12.591 0 0 1 3.8.308 18.428 18.428 0 0 1 1.826.548c.6.21 1.187.42 1.785.594a8.7 8.7 0 0 0 1.841.308c.625.053 1.256.057 1.887.062z" class="cls-4"/>
                    </g>
                </g>
                <g id="Group_11798-2">
                    <path id="Path_209046-2" d="M293.449 216.566c.639-.4 1.3-.818 1.971-1.183a18.26 18.26 0 0 1 15.829-.634 35.905 35.905 0 0 1 4.669 2.664 34.538 34.538 0 0 0 4.822 2.729l-.072.169a34.662 34.662 0 0 1-4.849-2.743 35.889 35.889 0 0 0-4.645-2.651 18.073 18.073 0 0 0-15.666.628c-.666.362-1.324.776-1.961 1.177a16.005 16.005 0 0 1-4.6 2.247l-.044-.179a15.843 15.843 0 0 0 4.546-2.224z" class="cls-4"/>
                </g>
                <g id="Group_11801-2">
                    <path id="Path_209047-2" d="M318.661 218.891c.512-.627 2.306-.3 2.985-.126a5.67 5.67 0 0 1 4.3 5.318c-.938-1.034-2.544-.966-3.889-1.343-.986-.277-4.557-2.419-3.396-3.849z" class="cls-1"/>
                    <path id="Path_209048-2" d="M319.622 218.849a3.061 3.061 0 0 1 2.7.391c.607.478-1.705.365-1.965 1.173-.036.111.036.477-.035.569a.459.459 0 0 1-.5.122 1.081 1.081 0 0 1-.438-.314c-.667-.71-1.054-1.51.238-1.941z" class="cls-2"/>
                    <path id="Path_209049-2" d="M322.8 222.548a.608.608 0 0 1 0-.838c.239-.239.674-.266.817-.572a.771.771 0 0 1 .089-.188.317.317 0 0 1 .223-.094c.448-.033.809.354 1.046.736a5.345 5.345 0 0 1 .752 2.1A4.681 4.681 0 0 0 324 222.9a2.892 2.892 0 0 1-1.2-.352z" class="cls-3"/>
                    <g id="Group_11799-2">
                        <path id="Path_209050-2" d="M316.748 217.958c.411.224.821.451 1.218.7a7 7 0 0 1 .581.4c.19.143.355.311.539.441a8.352 8.352 0 0 0 1.232.631l1.284.556a13.839 13.839 0 0 1 2.474 1.31 5.837 5.837 0 0 1 1.881 2.043 5.8 5.8 0 0 0-1.906-2.006 13.855 13.855 0 0 0-2.484-1.265l-1.293-.536a8.479 8.479 0 0 1-1.266-.622c-.2-.136-.366-.3-.551-.435a6.685 6.685 0 0 0-.575-.384c-.4-.239-.808-.458-1.22-.673z" class="cls-2"/>
                    </g>
                    <g id="Group_11800-2">
                        <path id="Path_209051-2" d="M322.363 219.671a.028.028 0 0 1 .027-.029.026.026 0 0 1 .026.028v.005a.027.027 0 0 1-.032.019.026.026 0 0 1-.019-.032" class="cls-5"/>
                        <path id="Path_209052-2" d="M321.991 219.812a.029.029 0 0 1 .027-.029.025.025 0 0 1 .023.029.026.026 0 0 1-.03.023.028.028 0 0 1-.021-.033" class="cls-5"/>
                        <path id="Path_209053-2" d="M322.658 219.7a.028.028 0 0 1 .028-.025.027.027 0 0 1 .025.029.026.026 0 0 1-.03.024.027.027 0 0 1-.021-.032" class="cls-5"/>
                        <path id="Path_209054-2" d="M322.815 219.486a.07.07 0 1 1 .14 0 .068.068 0 0 1-.135-.022" class="cls-5"/>
                        <path id="Path_209055-2" d="M323.094 220.1a.029.029 0 0 1 .027-.029.026.026 0 1 1-.007.052.027.027 0 0 1-.021-.032" class="cls-5"/>
                        <path id="Path_209056-2" d="M322.829 219.777a.029.029 0 0 1 .027-.029.027.027 0 0 1 .023.029.026.026 0 0 1-.03.023.028.028 0 0 1-.02-.033" class="cls-5"/>
                        <path id="Path_209057-2" d="M322.593 219.944a.083.083 0 0 1 .115-.008.081.081 0 0 1 0 .114l-.012.009a.078.078 0 0 1-.106-.024.077.077 0 0 1 .025-.106" class="cls-5"/>
                        <path id="Path_209058-2" d="M321.585 219.9a.078.078 0 1 1 .114.106.08.08 0 0 1-.113-.009.08.08 0 0 1 .022-.111" class="cls-5"/>
                        <path id="Path_209059-2" d="M322.381 219.342a.051.051 0 0 1 .071 0l.005.006a.047.047 0 0 1-.008.068.048.048 0 0 1-.068-.008.05.05 0 0 1 .013-.07" class="cls-5"/>
                        <path id="Path_209060-2" d="M323.159 219.811a.011.011 0 0 0 0-.014.011.011 0 0 0-.015 0 .011.011 0 1 0 .01.02" class="cls-5"/>
                    </g>
                </g>
            </g>
            <g id="Group_11803-2">
                <path id="Path_209061-2" d="M310.685 211.632c.245.178.038.632.259.84a.359.359 0 0 0 .326.07.886.886 0 0 0 .307-.157 1.353 1.353 0 0 0 .381-.373.61.61 0 0 0 .079-.512.856.856 0 0 0-.74-.446.75.75 0 0 0-.549.078c-.153.112-.187.387-.019.477z" class="cls-13"/>
                <path id="Path_209062-2" d="M308.042 211.284c-.447.6.334.938.407 1.44a.619.619 0 0 0 .481.495.711.711 0 0 0 .662-.231 1.012 1.012 0 0 0 .186-.329 3.019 3.019 0 0 0 .127-.944.725.725 0 0 0-.189-.631 1.534 1.534 0 0 0-1.674.2z" class="cls-13"/>
                <path id="Path_209063-2" d="M306.043 211.084c.177.127.261.355.44.479a.618.618 0 0 0 .789-.145.983.983 0 0 0 .166-.834c-.366-1.732-2.953-.613-1.395.5z" class="cls-14"/>
                <path id="Path_209064-2" d="M305.9 212.764a1.35 1.35 0 0 0 .923.161c.216-.017.474-.071.549-.274a.575.575 0 0 0 .021-.226l-.024-.673a.766.766 0 0 0-.027-.212.621.621 0 0 0-.547-.363c-.9-.105-1.837.883-.895 1.587z" class="cls-15"/>
                <path id="Path_209065-2" d="M309.357 213.061a.71.71 0 0 0 .488.085c.114-.009.25-.038.29-.145a.32.32 0 0 0 .011-.119l-.013-.356a.382.382 0 0 0-.014-.112.329.329 0 0 0-.289-.192c-.475-.056-.971.467-.473.839z" class="cls-15"/>
                <path id="Path_209066-2" d="M304.237 214.836a.937.937 0 0 0 .316.781 1.4 1.4 0 0 0 .793.334c.366.041.821-.1.889-.462a.936.936 0 0 0-.07-.456 1.308 1.308 0 0 0-.442-.731c-.423-.277-1.417-.044-1.486.534z" class="cls-16"/>
                <path id="Path_209067-2" d="M302.992 214.995c-.151-.149-.375-.571-.562-.647-.368-.148-.639.2-.8.5a.986.986 0 1 0 1.7.995c.241-.436-.08-.593-.338-.848z" class="cls-15"/>
            </g>
        </g>
        <g id="Group_3975">
            <g id="Ellipse_697">
                <circle id="Ellipse_1031" cx="3.766" cy="3.766" r="3.766" class="cls-17" transform="translate(260.197 217.418)"/>
                <circle id="Ellipse_1032" cx="3.187" cy="3.187" r="3.187" class="cls-17" transform="translate(260.777 217.997)"/>
            </g>
            <g id="Ellipse_698">
                <circle id="Ellipse_1033" cx="2.897" cy="2.897" r="2.897" class="cls-17" transform="translate(264.833 219.156)"/>
                <circle id="Ellipse_1034" cx="2.463" cy="2.463" r="2.463" class="cls-17" transform="translate(265.267 219.591)"/>
            </g>
            <g id="kisah_icon">
                <g id="Group_196">
                    <g id="Group_195">
                        <path id="Path_352" d="M268.806 214.271c-.818-1.427-2.525-1.186-2.525.564 0 1.237 2.525 2.932 2.525 2.932s2.525-1.73 2.525-2.932c0-1.75-1.709-1.992-2.525-.564z" class="cls-17"/>
                    </g>
                </g>
            </g>
        </g>
    </g>
</svg>
